<?xml version="1.0" encoding="utf-8"?>
<!-- Generator: Adobe Illustrator 25.4.1, SVG Export Plug-In . SVG Version: 6.00 Build 0)  -->
<svg version="1.1" id="Layer_1" xmlns="http://www.w3.org/2000/svg" xmlns:xlink="http://www.w3.org/1999/xlink" x="0px" y="0px"
	 viewBox="0 0 249.9 128.5" style="enable-background:new 0 0 249.9 128.5;" xml:space="preserve">
<g id="Сгруппировать_60" transform="translate(-835.059 -4488.5)">
	<g id="Сгруппировать_31" transform="translate(5491.123 771.289)">
		<path id="Контур_7" d="M-4656.1,3772.6c0.3-2.1,0.6-4.1,1.1-6.1c0.3-1.3,0.7-2.6,1.1-3.9c0.2-0.9,1.1-1.4,2-1.2
			c0.1,0,0.1,0,0.2,0.1c0.8,0.3,1.6,0.6,2.3,0.8c0.9,0.2,1.4,1.1,1.2,2c0,0,0,0.1,0,0.1c-0.6,2-1.1,4.1-1.5,6.2
			c-0.1,0.8-0.3,1.6-0.4,2.4c0,1-0.8,1.8-1.8,1.8c-0.1,0-0.3,0-0.4,0c-0.7-0.1-1.4-0.1-2.1-0.2c-0.9,0-1.6-0.8-1.6-1.7
			C-4656.1,3772.7-4656.1,3772.7-4656.1,3772.6z"/>
		<path id="Контур_8" d="M-4638.3,3767.9c-0.6,2-1,4.1-1.4,6.1c-0.2,1.2-0.8,1.6-2.1,1.5c-0.6-0.1-1.4-0.1-2.2-0.2
			c-0.9,0-1.6-0.8-1.5-1.7c0,0,0-0.1,0-0.1c0.2-1.5,0.4-2.9,0.8-4.4c0.2-1,0.5-2,0.8-3c0.2-0.9,1-1.5,1.9-1.4c0.2,0,0.3,0.1,0.4,0.1
			c0.7,0.3,1.5,0.5,2.2,0.8C-4638.5,3766.1-4638,3767-4638.3,3767.9C-4638.3,3767.9-4638.3,3767.9-4638.3,3767.9z"/>
		<path id="Контур_9" d="M-4639.7,3788.6c0.4,2.1,0.8,4.2,1.4,6.3c0.3,0.8-0.2,1.7-1,2c-0.8,0.3-1.6,0.7-2.4,1
			c-0.8,0.4-1.7,0-2.1-0.8c0-0.1-0.1-0.2-0.1-0.2c-0.8-2.5-1.4-5-1.7-7.6c0-0.1,0-0.1,0-0.2c-0.1-0.9,0.6-1.7,1.4-1.7c0,0,0,0,0.1,0
			c0.9-0.1,1.7-0.2,2.6-0.2C-4640.5,3787.1-4639.8,3787.7-4639.7,3788.6z"/>
		<path id="Контур_10" d="M-4632.1,3826.4c-0.5,0.7-1.1,1.3-1.6,2c-0.6,0.7-1.7,0.8-2.4,0.2c0,0,0,0-0.1-0.1
			c-3.6-3.3-6.7-7-9.5-11.1c-2.4-3.6-4.5-7.3-6.1-11.3c-1.9-4.6-3.3-9.4-4.1-14.3c-0.1-0.6-0.2-1.1-0.2-1.7
			c-0.1-0.9,0.5-1.6,1.3-1.7c0,0,0,0,0,0c0.9-0.1,1.9-0.2,2.8-0.3c0.9,0,1.7,0.7,1.8,1.7c0.2,1.5,0.5,3,0.8,4.5
			c0.7,2.9,1.5,5.8,2.7,8.6c1.8,4.6,4.2,8.9,7.1,12.9c2.2,3,4.6,5.7,7.3,8.2c0.7,0.5,0.8,1.5,0.3,2.2
			C-4632,3826.3-4632,3826.4-4632.1,3826.4z"/>
		<path id="Контур_11" d="M-4631.5,3794.1c-0.8,0.4-1.8,0-2.1-0.8c-0.1-0.1-0.1-0.2-0.1-0.3c-0.4-1.5-0.8-3-1-4.5
			c-0.2-0.9,0.3-1.8,1.1-2c0.2,0,0.3-0.1,0.5-0.1c0.7-0.1,1.5-0.1,2.1-0.2c1.3,0,1.9,0.5,2.1,1.6c0.2,1.1,0.4,2.2,0.7,3.3
			c0.3,0.9-0.1,1.8-1,2.1c-0.1,0-0.2,0.1-0.2,0.1C-4630.1,3793.6-4630.8,3793.9-4631.5,3794.1z"/>
		<path id="Контур_12" d="M-4628.2,3771.6c-0.3,1.2-0.6,2.3-0.8,3.5c-0.2,1.1-0.8,1.6-2.2,1.5c-0.6-0.1-1.4-0.1-2.2-0.2
			c-0.8-0.1-1.5-0.8-1.4-1.6c0,0,0,0,0-0.1c0.2-1.8,0.6-3.5,1.1-5.2c0.3-0.8,1.2-1.1,2-0.9c0.8,0.3,1.7,0.6,2.5,0.9
			C-4628.4,3769.8-4627.9,3770.7-4628.2,3771.6z"/>
		<path id="Контур_13" d="M-4633.9,3812.3c0.6-0.4,1.2-0.9,1.8-1.3c0.7-0.6,1.7-0.5,2.3,0.2c0,0,0.1,0.1,0.1,0.1
			c1.4,1.7,2.8,3.3,4.4,4.8c0.3,0.3,0.5,0.7,0.5,1.1c0,0.4-0.1,0.9-0.4,1.2c-0.5,0.6-1,1.2-1.6,1.8c-0.5,0.7-1.6,0.9-2.3,0.4
			c-0.1-0.1-0.1-0.1-0.2-0.2c-1.8-1.7-3.5-3.5-5-5.5c-0.6-0.7-0.6-1.7,0.1-2.3C-4634.2,3812.4-4634.1,3812.4-4633.9,3812.3z"/>
		<path id="Контур_14" d="M-4651.6,3756.3c0.9-2.1,1.9-4.2,3-6.2c2.3-4.1,5-7.9,8.1-11.4c2.9-3.2,6-6.1,9.5-8.7
			c2.5-1.8,5.1-3.5,7.7-5c0.2-0.1,0.5-0.3,0.7-0.4c0.8-0.5,1.8-0.3,2.3,0.5c0.1,0.1,0.1,0.2,0.2,0.3c0.3,0.6,0.6,1.3,0.9,1.9
			c0.5,0.8,0.3,1.8-0.4,2.3c-0.1,0.1-0.2,0.1-0.4,0.2c-1.9,1-3.7,2.1-5.5,3.3c-4.5,3.1-8.6,6.8-12.1,11.1c-3.1,3.7-5.7,7.8-7.7,12.2
			c-0.3,0.7-0.6,1.4-0.9,2.1c-0.3,0.6-0.9,1-1.5,1c-0.4,0-0.7-0.1-1.1-0.3c-0.6-0.2-1.3-0.4-1.9-0.7c-0.9-0.3-1.3-1.2-1-2.1
			C-4651.7,3756.4-4651.6,3756.4-4651.6,3756.3z"/>
		<path id="Контур_15" d="M-4618.9,3834.4c0,0.2-0.1,0.5-0.2,0.7c-0.4,0.8-0.7,1.6-1.1,2.3c-0.3,0.8-1.3,1.3-2.1,0.9
			c-0.1,0-0.2-0.1-0.3-0.2c-3-1.6-5.8-3.4-8.5-5.4c-0.8-0.5-1-1.5-0.5-2.3c0.1-0.1,0.2-0.2,0.3-0.3c0.5-0.6,1-1.2,1.5-1.8
			c0.5-0.7,1.6-0.9,2.3-0.3c0,0,0,0,0.1,0.1c1.4,1,2.8,2,4.2,2.9c1.1,0.7,2.2,1.3,3.3,1.9
			C-4619.3,3833.2-4618.9,3833.7-4618.9,3834.4z"/>
		<path id="Контур_16" d="M-4620.5,3769.7c-0.8-0.3-1.2-1.2-1-2c0,0,0-0.1,0.1-0.1c0.3-0.7,0.7-1.5,1.1-2.1
			c0.3-0.4,0.8-0.7,1.3-0.6c0.3,0,0.7,0.1,0.9,0.3c0.6,0.4,1.3,0.9,1.9,1.3c0.7,0.4,0.9,1.3,0.6,2c-0.2,0.5-0.4,0.9-0.7,1.3
			c-0.3,0.7-1.2,1-1.9,0.8C-4618.9,3770.3-4619.7,3770-4620.5,3769.7z"/>
		<path id="Контур_17" d="M-4625.4,3739c2.3-1.8,4.7-3.3,7.2-4.7c0.7-0.6,1.8-0.4,2.4,0.3c0.1,0.2,0.2,0.3,0.3,0.5
			c0.3,0.7,0.6,1.4,1,2.1c0.1,0.2,0.2,0.5,0.2,0.7c0,0.6-0.3,1.2-0.9,1.4c-4,2.2-7.7,5-10.9,8.2c-4.2,4.2-7.6,9.1-10,14.6
			c-0.3,0.9-1.3,1.3-2.1,1c0,0,0,0,0,0c-0.7-0.3-1.5-0.5-2.2-0.8c-0.9-0.2-1.5-1.2-1.2-2.1c0-0.2,0.1-0.3,0.2-0.5
			c1.8-4,4-7.8,6.7-11.2C-4632.1,3745-4628.9,3741.8-4625.4,3739z"/>
		<path id="Контур_18" d="M-4622.4,3785.5c0.7-0.1,1.5-0.1,2-0.2c1.3,0,1.8,0.4,2.1,1.5c0.7,3.6,2.2,7.1,4.4,10.1
			c0.8,1,1.6,2,2.5,2.9c0.6,0.5,0.7,1.4,0.2,2c0,0-0.1,0.1-0.1,0.1c-0.6,0.7-1.2,1.4-1.8,2.1c-0.5,0.6-1.4,0.7-2,0.2
			c0,0-0.1-0.1-0.1-0.1c-3.3-3.2-5.8-7.1-7.4-11.5c-0.6-1.6-1-3.3-1.4-5c-0.3-0.8,0.2-1.8,1.1-2
			C-4622.7,3785.5-4622.6,3785.4-4622.4,3785.5z"/>
		<path id="Контур_19" d="M-4617.5,3746.5c1.2-0.9,2.5-1.7,3.8-2.5c0.7-0.6,1.8-0.5,2.4,0.3c0.1,0.2,0.2,0.4,0.3,0.6
			c0.3,0.7,0.7,1.4,1,2.1c0.4,0.8,0,1.7-0.7,2.1c-4.9,2.8-9.1,6.6-12.2,11.2c-1.2,1.7-2.2,3.5-3.1,5.5c-0.3,0.7-0.9,1.1-1.6,1.1
			c-0.7-0.2-1.4-0.4-2-0.6c-0.3-0.1-0.5-0.2-0.8-0.3c-0.9-0.2-1.4-1.1-1.2-2c0-0.1,0.1-0.3,0.2-0.4c0.3-0.8,0.7-1.5,1.1-2.3
			C-4627.2,3755.5-4622.8,3750.4-4617.5,3746.5z"/>
		<path id="Контур_20" d="M-4610.2,3814.1c0.4,0.5,0.5,1.1,0.3,1.7c-0.4,0.8-0.7,1.6-1.1,2.4c-0.4,0.8-1.4,1.1-2.2,0.7
			c0,0,0,0,0,0c-1.8-1-3.4-2-5-3.3c-2.4-1.8-4.5-3.8-6.5-6.1c-2.4-2.8-4.5-5.9-6.1-9.3c-0.2-0.4-0.4-0.9-0.6-1.3
			c-0.3-0.8,0.1-1.6,0.9-2c0.9-0.4,1.8-0.7,2.7-1c0.1,0,0.2-0.1,0.3-0.1c0.7,0,1.4,0.5,1.6,1.2c0.5,1.2,1.2,2.4,1.9,3.6
			c2.4,4,5.5,7.4,9.2,10.2c1.2,0.9,2.5,1.8,3.8,2.6C-4610.8,3813.6-4610.5,3813.8-4610.2,3814.1z"/>
		<path id="Контур_21" d="M-4608.6,3809.2c-0.7-0.4-1.4-0.8-2.1-1.3c-0.6-0.5-0.7-1.4-0.2-2c0.6-0.8,1.2-1.5,1.9-2.2
			c0.5-0.5,1.2-0.6,1.8-0.2c0.5,0.3,1,0.6,1.5,1c0.3,0.2,0.5,0.6,0.5,1c0,0.3,0,0.6-0.1,0.8c-0.4,0.8-0.7,1.6-1.1,2.3
			C-4606.9,3809.3-4607.8,3809.6-4608.6,3809.2C-4608.6,3809.2-4608.6,3809.2-4608.6,3809.2z"/>
		<path id="Контур_22" d="M-4610.7,3755c0.7-0.5,1.4-0.9,2.1-1.3c0.8-0.4,1.7-0.1,2.1,0.6c0,0,0,0.1,0.1,0.1
			c0.3,0.7,0.7,1.4,1,2.1c0.1,0.2,0.2,0.5,0.2,0.7c0,0.6-0.2,1.1-0.7,1.4c-0.5,0.3-0.9,0.6-1.4,0.9c-0.6,0.4-1.4,0.3-1.9-0.2
			c-0.6-0.6-1.2-1.3-1.8-2c-0.6-0.6-0.5-1.6,0.1-2.2C-4610.9,3755.1-4610.8,3755-4610.7,3755z"/>
		<path id="Контур_23" d="M-4607.1,3720.6c-0.2-0.9,0.3-1.8,1.2-2c0,0,0.1,0,0.1,0c3.3-0.7,6.6-1.2,10-1.3
			c1.4-0.1,2.1,0.6,2.1,2v1c0,0.4,0,0.8,0,1.1c0.1,0.9-0.6,1.7-1.5,1.8c-0.1,0-0.1,0-0.2,0c-3.1,0.2-6.1,0.6-9.1,1.2
			c-0.8,0.2-1.7-0.3-1.9-1.2C-4606.6,3722.3-4606.9,3721.4-4607.1,3720.6z"/>
		<path id="Контур_24" d="M-4593.8,3729.7v1.1c0,0.4,0,0.8,0,1.2c0,0.9-0.7,1.6-1.5,1.7c-2.2,0.1-4.3,0.4-6.4,0.8
			c-0.8,0.2-1.7-0.3-1.9-1.2c-0.2-0.8-0.5-1.7-0.7-2.5c-0.3-0.9,0.2-1.8,1.1-2c0.1,0,0.1,0,0.2,0c2.4-0.5,4.8-0.8,7.2-1
			c0.9-0.2,1.8,0.4,2,1.3C-4593.8,3729.3-4593.8,3729.5-4593.8,3729.7z"/>
		<path id="Контур_25" d="M-4593.8,3740.4c0,0.4,0,0.7,0,1.1c0,0.4,0,0.9,0,1.3c0,0.8-0.5,1.4-1.3,1.5
			c-1.4,0.2-2.8,0.4-4.2,0.5c-0.8,0.1-1.5-0.4-1.6-1.2c-0.2-0.8-0.4-1.5-0.6-2.3c-0.3-0.8,0.1-1.8,0.9-2.1c0.1,0,0.3-0.1,0.4-0.1
			c1.5-0.3,3-0.5,4.5-0.6c0.9-0.2,1.7,0.4,1.9,1.3C-4593.8,3740-4593.7,3740.2-4593.8,3740.4z"/>
		<path id="Контур_26" d="M-4593.7,3751c0,0.4,0,0.8,0,1.2c0,0.4,0,0.8,0,1.2c0,0.8-0.6,1.6-1.5,1.7c-0.4,0.1-0.9,0.1-1.3,0.2
			c-0.7,0.1-1.4-0.3-1.6-1c-0.3-0.8-0.5-1.6-0.7-2.5c-0.3-0.8,0.2-1.7,1-2c0.1,0,0.2-0.1,0.4-0.1c0.7-0.1,1.3-0.2,2-0.2
			c0.9-0.1,1.7,0.5,1.8,1.4C-4593.7,3750.8-4593.7,3750.9-4593.7,3751z"/>
		<path id="Контур_27" d="M-4595.3,3829.1c0.9,0,1.7,0.8,1.7,1.7c0,0.1,0,0.1,0,0.2c0,0.6-0.1,1.3-0.1,1.9
			c0,1.5-0.6,2.1-2.3,2c-2.4-0.2-4.8-0.5-7.1-1c-0.9-0.2-1.4-1-1.2-1.9c0.2-1,0.5-1.9,0.8-2.8c0.3-0.7,1-1.1,1.7-1
			C-4599.7,3828.7-4597.5,3829-4595.3,3829.1z"/>
		<path id="Контур_28" d="M-4584.1,3819.1c0.3,0.8,0.5,1.7,0.8,2.5c0.3,0.8-0.2,1.7-1.1,2c-0.1,0-0.1,0-0.2,0
			c-1.4,0.3-2.7,0.5-4.1,0.6c-1.4,0.3-2.2-0.9-2-2.1c0.1-0.7,0.1-1.4,0.1-2.1c0-0.7,0.5-1.3,1.2-1.4c1.2-0.2,2.5-0.4,3.7-0.5
			C-4584.9,3817.9-4584.3,3818.4-4584.1,3819.1z"/>
		<path id="Контур_29" d="M-4579.1,3810.7c-3.1,1.4-6.4,2.3-9.8,2.7c-1.2,0.1-2.3,0.2-3.5,0.2c-1.7,0-3.4-0.1-5-0.4
			c-0.9-0.1-1.5-0.8-1.5-1.7c0-0.1,0-0.2,0.1-0.3c0.2-0.8,0.4-1.7,0.7-2.5c0.2-0.8,1-1.3,1.8-1.1c2.1,0.3,4.3,0.4,6.4,0.2
			c2.7-0.2,5.3-0.9,7.8-1.9c1.3-0.6,1.9-0.4,2.7,0.9c0.3,0.6,0.7,1.1,1,1.7c0.5,0.7,0.3,1.6-0.4,2.1
			C-4578.9,3810.6-4579,3810.7-4579.1,3810.7z"/>
		<path id="Контур_30" d="M-4592.3,3765.4c8.8,0,15.9,7.1,15.9,15.9c0,0,0,0.1,0,0.1c0,8.8-7.2,16-16,15.9c0,0,0,0-0.1,0
			c-8.8,0-15.9-7.2-15.9-16c0,0,0,0,0,0C-4608.3,3772.4-4601.2,3765.3-4592.3,3765.4C-4592.4,3765.4-4592.3,3765.4-4592.3,3765.4z"
			/>
		<path id="Контур_31" d="M-4590.9,3752.2c0-0.4,0-0.8,0-1.2c0-0.9,0.6-1.6,1.5-1.6c0.1,0,0.2,0,0.3,0
			c3.2,0.3,6.3,1.1,9.3,2.4c2.8,1.2,5.4,2.8,7.8,4.7c0.7,0.5,0.9,1.5,0.4,2.2c-0.1,0.1-0.2,0.2-0.3,0.3c-0.5,0.6-1.1,1.1-1.7,1.7
			c-0.6,0.6-1.6,0.7-2.3,0.1c-3.9-3.1-8.5-5-13.4-5.6c-1.2-0.2-1.7-0.7-1.7-1.9L-4590.9,3752.2z"/>
		<path id="Контур_32" d="M-4575.8,3807.2c-0.5-0.7-1-1.5-1.4-2.2c-0.4-0.6-0.3-1.5,0.3-2c0.4-0.4,0.9-0.7,1.4-1.1
			c0.6-0.4,1.3-0.3,1.8,0.2c0.7,0.6,1.4,1.3,2,2c0.2,0.3,0.4,0.6,0.4,1c0,0.4-0.1,0.9-0.5,1.1c-0.6,0.5-1.2,1-1.9,1.5
			C-4574.4,3808.1-4575.3,3807.9-4575.8,3807.2C-4575.8,3807.2-4575.8,3807.2-4575.8,3807.2z"/>
		<path id="Контур_33" d="M-4578.1,3828.8c-0.3-0.9,0.2-1.8,1-2.1c0,0,0,0,0.1,0c2-0.7,3.9-1.5,5.8-2.4
			c0.8-0.5,1.8-0.2,2.2,0.6c0,0,0,0,0,0.1c0.5,0.7,0.9,1.5,1.3,2.3c0.1,0.2,0.2,0.4,0.2,0.7c0,0.7-0.3,1.3-1,1.6
			c-2.2,1.1-4.6,2.1-6.9,2.9c-0.8,0.3-1.8-0.1-2.1-0.9c0-0.1-0.1-0.2-0.1-0.3C-4577.7,3830.3-4577.9,3829.6-4578.1,3828.8z"/>
		<path id="Контур_34" d="M-4590.9,3742.6c0-0.4,0-0.8,0-1.2h0c0-0.5,0-0.9,0-1.4c0-0.8,0.7-1.5,1.5-1.5c0.1,0,0.1,0,0.2,0
			c1.6,0.1,3.2,0.3,4.7,0.6c4.4,0.8,8.7,2.3,12.6,4.5c2.6,1.4,5.1,3.1,7.4,5.1c0.7,0.5,0.9,1.5,0.4,2.2c-0.1,0.1-0.1,0.2-0.2,0.3
			c-0.6,0.6-1.2,1.2-1.8,1.8c-0.6,0.7-1.5,0.7-2.2,0.2c0,0-0.1-0.1-0.1-0.1c-2-1.7-4.1-3.1-6.4-4.4c-3.1-1.7-6.5-2.9-9.9-3.7
			c-1.5-0.3-3.1-0.5-4.6-0.7C-4590.1,3744.4-4590.9,3743.6-4590.9,3742.6C-4590.9,3742.7-4590.9,3742.7-4590.9,3742.6z"/>
		<path id="Контур_35" d="M-4564.2,3813.7c-1.3,1.2-2.7,2.3-4.2,3.2c-0.7,0.5-1.7,0.3-2.2-0.5c0,0,0,0,0-0.1
			c-0.5-0.7-0.9-1.5-1.4-2.2c-0.4-0.7-0.2-1.5,0.4-2c1.2-0.9,2.4-1.8,3.5-2.7c0.6-0.5,1.5-0.4,2,0.1c0.7,0.6,1.3,1.3,2,2
			c0.3,0.3,0.4,0.6,0.3,1C-4563.6,3813-4563.8,3813.5-4564.2,3813.7z"/>
		<path id="Контур_36" d="M-4562.4,3836.2c0.5,0.8,0.3,1.8-0.4,2.3c-0.1,0.1-0.2,0.1-0.3,0.2c-5.9,3-12.3,5.1-18.9,6.2
			c-3.3,0.6-6.6,0.8-9.9,0.8c-4.5,0-9.1-0.4-13.5-1.3c-1.5-0.3-2-1.1-1.6-2.6c0.2-0.7,0.4-1.3,0.5-2c0.2-0.9,1-1.4,1.9-1.3
			c0,0,0.1,0,0.1,0c4.8,1,9.6,1.4,14.5,1.2c4.2-0.2,8.4-0.8,12.5-1.9c4-1.1,7.9-2.5,11.6-4.4c0.8-0.5,1.8-0.3,2.3,0.5
			c0,0.1,0.1,0.1,0.1,0.2C-4563.1,3834.9-4562.7,3835.5-4562.4,3836.2z"/>
		<path id="Контур_37" d="M-4590.8,3731.8c0-0.4,0-0.8,0-1.1c0-0.4,0-0.7,0-1.1c-0.1-0.9,0.5-1.7,1.4-1.9c0.2,0,0.4,0,0.5,0
			c3.1,0.2,6.2,0.7,9.2,1.4c5.4,1.3,10.6,3.4,15.3,6.3c2.7,1.7,5.3,3.5,7.6,5.6c0.7,0.6,0.8,1.6,0.2,2.3c0,0.1-0.1,0.1-0.1,0.1
			c-0.6,0.6-1.1,1.1-1.7,1.7c-0.6,0.7-1.7,0.8-2.4,0.1c0,0-0.1-0.1-0.1-0.1c-4-3.6-8.7-6.4-13.7-8.4c-3.8-1.5-7.8-2.6-11.9-3.1
			c-0.9-0.1-1.8-0.2-2.7-0.2c-0.9,0.1-1.7-0.6-1.8-1.5C-4590.8,3732-4590.8,3731.9-4590.8,3731.8z"/>
		<path id="Контур_38" d="M-4590.8,3721.3c0-0.7,0-1.3,0-2c0-1.7,0.5-2.2,2.4-2.1c2.9,0.2,5.8,0.6,8.7,1.1
			c4.4,0.9,8.6,2.2,12.7,3.9c3.8,1.6,7.5,3.6,10.9,6c2.4,1.6,4.7,3.4,6.8,5.4c0.7,0.5,0.9,1.6,0.4,2.3c-0.1,0.1-0.2,0.2-0.3,0.3
			c-0.6,0.6-1.1,1.1-1.7,1.7c-0.6,0.6-1.6,0.6-2.3,0.1c-3-2.7-6.3-5.1-9.8-7.2c-3.4-2-7.1-3.6-10.9-4.9c-4.1-1.4-8.3-2.2-12.6-2.7
			c-0.9-0.1-1.8-0.1-2.7-0.2c-0.9,0-1.6-0.7-1.7-1.6C-4590.8,3721.5-4590.8,3721.4-4590.8,3721.3z"/>
		<path id="Контур_39" d="M-4544.7,3824.6c0.1,2.3-1.6,4.3-3.9,4.6c-0.2,0-0.5,0.1-0.7,0.3c-2.5,2.3-5.2,4.3-8.1,6
			c-0.8,0.5-1.8,0.3-2.4-0.5c0-0.1-0.1-0.1-0.1-0.2c-0.5-0.7-0.9-1.5-1.3-2.3c-0.4-0.8-0.2-1.8,0.6-2.2c2.4-1.6,4.8-3.4,7-5.3
			c0.2-0.2,0.4-0.5,0.5-0.8c0.3-2.3,2.3-3.9,4.6-3.6c0.7,0.1,1.4,0.4,2,0.8C-4545.3,3822.2-4544.7,3823.3-4544.7,3824.6z"/>
		<path id="Контур_40" d="M-4536.8,3787.7c0,3.5,0,7,0,10.5c0,2.2-0.9,4.3-2.6,5.7c-1.1,0.9-2.4,1.4-3.8,1.6
			c-1.9,0.3-3.9,0-5.7-0.9c-1.8-1-3.1-2.8-3.4-4.9c-0.1-0.7-0.2-1.3-0.2-2c0-3.3,0-6.6,0-9.8c0-0.5,0.1-0.7,0.7-0.7c1,0,2,0,3,0
			c0.5,0,0.6,0.1,0.6,0.6c0,3.4,0,6.8,0,10.2c-0.1,1,0.2,2,0.8,2.8c0.9,1.1,2.5,1.6,3.9,1.1c1.4-0.4,2.3-1.7,2.4-3.1
			c0.2-1.9,0-3.8,0.1-5.3c0-2.1,0-3.9,0-5.7c0-0.4,0.1-0.6,0.5-0.6c1.1,0,2.1,0,3.2,0C-4537,3787.2-4536.8,3787.2-4536.8,3787.7z"/>
		<path id="Контур_41" d="M-4534.9,3774.5c-2.1-5.6-4.3-11.2-6.5-16.8c-0.1-0.3-0.3-0.5-0.6-0.4c-1.1,0-2.2,0-3.3,0
			c-0.3-0.1-0.7,0.2-0.7,0.5c-1,2.6-2,5.1-3,7.7c-1.2,3.2-2.5,6.3-3.7,9.5c-0.1,0.3-0.1,0.4,0.3,0.4c0.9,0,1.8,0,2.6,0
			c0.8,0.1,1.5-0.4,1.7-1.2c0.3-0.8,0.6-1.6,0.8-2.4c0-0.3,0.3-0.5,0.6-0.4c1,0,2,0,3,0c1,0,2,0,3,0c0.3-0.1,0.6,0.2,0.7,0.5
			c0,0,0,0,0,0c0.2,0.8,0.5,1.5,0.7,2.2c0.1,0.9,0.9,1.5,1.8,1.3c0.7,0,1.4,0,2,0C-4534.5,3775.4-4534.5,3775.6-4534.9,3774.5z
			 M-4541.7,3768.5c-1.4,0-2.8,0-4.2,0c-0.3,0-0.3-0.1-0.2-0.4c0.6-1.6,1.1-3.3,1.7-4.9c0.2-0.6,0.4-1.3,0.7-2.1
			c0.7,1.9,1.3,3.7,1.9,5.6c0.2,0.5,0.3,0.9,0.5,1.4C-4541.3,3768.4-4541.4,3768.5-4541.7,3768.5L-4541.7,3768.5z"/>
		<path id="Контур_42" d="M-4528.3,3775.6c-2.1,0-4.2-0.7-5.8-2c-0.3-0.3-0.4-0.5-0.1-0.8c0.3-0.4,0.6-0.9,0.9-1.4
			c0.3-0.6,1-0.8,1.6-0.5c0.1,0,0.1,0.1,0.2,0.1c0.5,0.4,1.1,0.7,1.7,0.9c0.9,0.4,1.9,0.4,2.8,0.2c0.7-0.2,1.3-0.8,1.3-1.5
			c0.2-0.7-0.2-1.5-0.8-1.9c-0.6-0.4-1.3-0.6-2-0.8c-0.8-0.2-1.6-0.5-2.4-0.8c-3.1-1.4-3.3-5.1-2.1-7.2c0.8-1.4,2.3-2.4,3.9-2.7
			c2.4-0.5,4.8,0,6.8,1.4c0.3,0.2,0.4,0.4,0.2,0.8c-0.3,0.4-0.5,1-0.8,1.4c-0.5,0.8-0.9,0.9-1.7,0.4c-0.9-0.6-2.1-1-3.2-0.9
			c-0.2,0-0.4,0.1-0.6,0.1c-0.8,0.2-1.3,0.8-1.3,1.6c0,0.7,0.5,1.3,1.1,1.6c0.7,0.3,1.5,0.6,2.2,0.8c1,0.3,2,0.7,2.8,1.2
			c1.5,1,2.2,2.8,1.9,4.5c-0.2,3-2.7,5.3-5.7,5.3C-4527.8,3775.6-4528,3775.6-4528.3,3775.6z"/>
		<path id="Контур_43" d="M-4517.7,3787.7c0,2.7,0,5.4,0,8.1c0,3,0,5.9,0,8.9c0,0.4-0.1,0.6-0.6,0.6c-0.6,0-1.3,0-1.9,0
			c-0.5,0-0.9-0.3-1.1-0.6c-1.7-2.1-3.4-4.3-5.1-6.4c-1.1-1.4-2.3-2.8-3.5-4.2c0,0.3,0,0.5,0,0.8c0,3.4,0,6.7,0,10
			c0,0.4-0.1,0.5-0.5,0.5c-0.9,0-1.9,0-2.8,0c-0.4,0-0.5-0.2-0.5-0.5c0-5.7,0-11.4,0-17.1c0-0.4,0.1-0.5,0.5-0.5c0.6,0,1.2,0,1.8,0
			c0.5,0,1,0.2,1.2,0.6c1.8,2.3,3.6,4.6,5.4,6.9c1,1.3,2.1,2.6,3.1,3.9c0,0,0.1,0,0.1,0c-0.1-1-0.1-2.1-0.1-3.1c0-2.6,0-5.1,0-7.7
			c0-0.4,0.1-0.6,0.5-0.5c0.9,0,1.8,0,2.6,0C-4517.8,3787.1-4517.7,3787.3-4517.7,3787.7z"/>
		<path id="Контур_44" d="M-4510,3787.6c0,5.7,0,11.5,0,17.2c0,0.3-0.1,0.5-0.5,0.5c-1.1,0-2.2,0-3.3,0
			c-0.4,0-0.5-0.1-0.5-0.5c0-2.9,0-5.7,0-8.6c0-2.8,0-5.7,0-8.5c0-0.4,0.1-0.6,0.6-0.6c1.1,0,2.1,0,3.2,0
			C-4510.1,3787.2-4510,3787.3-4510,3787.6z"/>
		<path id="Контур_45" d="M-4515.1,3775.4c-0.4,0-0.5-0.1-0.5-0.6c0-4.5,0-9.1,0-13.6c0-0.5-0.1-0.7-0.7-0.7
			c-1.3,0-2.6,0-3.9,0c-0.5,0-0.6-0.2-0.6-0.6c0-0.7,0-1.5,0-2.2c0-0.4,0.1-0.6,0.6-0.6c3.9,0,7.9,0,11.8,0c0.5,0,1.1,0,1.6,0
			c0.4,0,0.5,0.1,0.5,0.5c0,0.8,0,1.6,0,2.4c0,0.3-0.1,0.5-0.5,0.5c-1.4,0-2.7,0-4.1,0c-0.4,0-0.6,0.1-0.6,0.6c0,2.3,0,4.6,0,6.9
			c0,2.3,0,4.5,0,6.8c0,0.4-0.1,0.6-0.6,0.6C-4513,3775.4-4514,3775.4-4515.1,3775.4z"/>
		<path id="Контур_46" d="M-4490.4,3787.7c-0.8,1.9-1.6,3.9-2.4,5.8c-1.4,3.4-2.8,6.8-4.1,10.3c-0.6,1.5-0.6,1.5-2.2,1.5
			c-0.6,0-1.2,0-1.8,0c-0.3,0-0.5-0.1-0.6-0.4c-1.8-4.5-3.6-9-5.4-13.5c-0.5-1.2-1-2.5-1.5-3.7c-0.2-0.4-0.1-0.5,0.3-0.5
			c0.9,0,1.8,0,2.7,0c0.8-0.1,1.5,0.4,1.7,1.2c0.6,1.7,1.2,3.4,1.8,5c0.8,2.3,1.7,4.5,2.4,6.8h0.2c1.2-4,2.8-8,4.2-11.9
			c0.2-0.7,0.8-1.2,1.5-1.1c0.9,0,1.8,0,2.7,0C-4490.2,3787.1-4490.2,3787.3-4490.4,3787.7z"/>
		<path id="Контур_47" d="M-4489.8,3774.9c-0.7-1.8-1.5-3.7-2.2-5.5c-1.5-3.9-3-7.8-4.5-11.7c-0.1-0.3-0.4-0.5-0.6-0.4
			c-1.1,0-2.1,0-3.2,0c-0.6,0-0.8,0.2-1,0.7c-1.3,3.4-2.6,6.9-4,10.3c-0.9,2.2-1.7,4.4-2.6,6.6c-0.2,0.4-0.1,0.6,0.4,0.6
			c0.9,0,1.8,0,2.6,0c0.7,0.1,1.4-0.4,1.5-1.1c0.3-0.8,0.6-1.7,0.9-2.5c0.1-0.3,0.3-0.4,0.6-0.4c2,0,4,0,6,0c0.3,0,0.6,0.2,0.7,0.5
			c0.3,0.8,0.5,1.6,0.8,2.4c0.1,0.8,0.9,1.3,1.7,1.2h1.2c0.4,0,0.9,0,1.3,0C-4489.7,3775.5-4489.6,3775.4-4489.8,3774.9z
			 M-4496.9,3768.5c-1.3,0-2.6,0-4,0c-0.3,0-0.4-0.1-0.3-0.4c0.8-2.3,1.5-4.5,2.4-7c0.3,1.2,0.7,2.1,1.1,3.2
			c0.4,1.2,0.8,2.4,1.2,3.7C-4496.4,3768.3-4496.4,3768.5-4496.9,3768.5L-4496.9,3768.5z"/>
		<path id="Контур_48" d="M-4477,3802.7c0,0.7,0,1.5,0,2.2c0,0.3-0.1,0.4-0.4,0.4c-3.6,0-7.2,0-10.8,0c-0.4,0-0.4-0.2-0.4-0.5
			v-8.5c0-2.8,0-5.7,0-8.5c0-0.4,0.1-0.6,0.6-0.6c3.5,0,7.1,0,10.6,0c0.4,0,0.6,0.1,0.5,0.5c0,0.8,0,1.5,0,2.3
			c0,0.4-0.2,0.5-0.5,0.5c-2.1,0-4.2,0-6.3,0c-0.5,0-0.6,0.1-0.6,0.6c0,1,0,2.1,0,3.1c0,0.4,0.1,0.5,0.5,0.5c1.5,0,3.1,0,4.6,0
			c0.5,0,0.6,0.2,0.6,0.6c0,0.7,0,1.4,0,2c0,0.4-0.1,0.5-0.5,0.5c-1.6,0-3.1,0-4.7,0c-0.5,0-0.6,0.1-0.6,0.6c0,1.1,0,2.1,0,3.2
			c0,0.5,0.2,0.6,0.6,0.6c2.1,0,4.2,0,6.2,0C-4477.2,3802.1-4477,3802.2-4477,3802.7z"/>
		<path id="Контур_49" d="M-4474.5,3775.4c-0.6,0-1.2-0.3-1.6-0.8c-2-2.6-4.1-5.2-6.1-7.7c-0.7-0.9-1.5-1.9-2.3-2.9
			c0,3.7,0,7.2,0,10.8c0,0.5-0.1,0.6-0.6,0.6c-0.9,0-1.7,0-2.6,0c-0.5,0-0.5-0.2-0.5-0.6c0-4.9,0-9.8,0-14.7c0-0.8,0-1.6,0-2.4
			c0-0.3,0.1-0.5,0.5-0.5c0.6,0,1.3,0,1.9,0c0.5,0,1,0.2,1.2,0.6c2.8,3.5,5.6,7.1,8.4,10.6c0,0.1,0.1,0.1,0.3,0.2
			c0-0.6-0.1-1.2-0.1-1.7c0-3.1,0-6.2,0-9.3c0-0.4,0.1-0.5,0.5-0.5c0.9,0,1.9,0,2.8,0c0.3,0,0.5,0.1,0.5,0.4c0,5.8,0,11.5,0,17.2
			c0,0.4-0.1,0.5-0.5,0.5C-4473.4,3775.4-4473.9,3775.4-4474.5,3775.4z"/>
		<path id="Контур_50" d="M-4459.9,3804.8c-0.9-1.5-1.8-2.9-2.7-4.4c-0.5-1-1.2-1.9-2.1-2.6c0-0.1,0.1-0.2,0.2-0.2
			c2.5-1,3.8-3.7,3.2-6.3c-0.2-1-0.7-1.8-1.4-2.5c-1.4-1.1-3.1-1.7-4.8-1.6c-2.1-0.1-4.2,0-6.3,0c-0.4,0-0.5,0.1-0.5,0.5
			c0,5.7,0,11.5,0,17.2c0,0.4,0.1,0.5,0.5,0.5c1,0,2,0,3.1,0c0.5,0,0.7-0.2,0.7-0.7c0-1.8,0-3.7,0-5.5c0-0.2-0.1-0.4,0.2-0.5
			c0.8-0.2,1.7,0.1,2.2,0.8c0.9,1.6,1.9,3.3,2.8,4.9c0.3,0.6,0.8,0.9,1.5,0.9c1.1,0,2.2,0,3.3,0c0.2,0,0.4,0.1,0.5-0.1
			S-4459.8,3804.9-4459.9,3804.8z M-4466.7,3795.3c-1.1,0.4-2.2,0.5-3.3,0.4c-0.3,0-0.2-0.2-0.2-0.4c0-0.8,0-1.6,0-2.4
			c0-0.7,0-1.4,0-2.1c0-0.3,0.1-0.5,0.4-0.5c1-0.1,2,0,3,0.3c0.9,0.3,1.5,1.2,1.4,2.1C-4465.2,3793.8-4465.8,3794.8-4466.7,3795.3
			L-4466.7,3795.3z"/>
		<path id="Контур_51" d="M-4452.7,3775c-0.4-0.9-0.7-1.8-1-2.6c-1.9-4.9-3.8-9.7-5.6-14.6c-0.1-0.3-0.4-0.5-0.7-0.5
			c-0.5,0-1.1,0-1.6,0c-0.5,0-1,0-1.6,0c-0.5,0-0.7,0.1-0.9,0.6c-1.3,3.4-2.6,6.8-3.9,10.3c-0.9,2.3-1.8,4.6-2.7,6.9
			c-0.1,0.3-0.1,0.4,0.3,0.4c0.9,0,1.7,0,2.6,0c0.8,0.1,1.6-0.5,1.7-1.3c0.3-0.8,0.5-1.6,0.8-2.4c0.1-0.3,0.3-0.5,0.6-0.4
			c2,0,4,0,6.1,0c0.3,0,0.5,0.1,0.5,0.4c0.3,0.9,0.6,1.7,0.9,2.5c0.2,0.7,0.8,1.2,1.6,1.1c0.9,0,1.8,0,2.7,0
			C-4452.6,3775.5-4452.6,3775.3-4452.7,3775z M-4459.7,3768.5c-1.4,0-2.8,0-4.1,0c-0.4,0-0.4-0.2-0.3-0.5c0.7-1.9,1.3-3.9,2-5.8
			c0.1-0.3,0.2-0.7,0.4-1.1c0.8,2.4,1.6,4.7,2.4,7C-4459.3,3768.4-4459.4,3768.5-4459.7,3768.5L-4459.7,3768.5z"/>
		<path id="Контур_52" d="M-4446.9,3801.2c-0.7,2.4-2.8,4.1-5.3,4.2c-0.4,0-0.7,0-1.1,0.1c-2.1,0-4.2-0.8-5.9-2.1
			c-0.3-0.2-0.3-0.4-0.1-0.7c0.3-0.5,0.6-1,0.9-1.4c0.3-0.6,1-0.8,1.6-0.6c0.1,0,0.2,0.1,0.2,0.2c0.4,0.3,0.9,0.5,1.3,0.8
			c0.8,0.4,1.8,0.6,2.7,0.4c0.9,0,1.6-0.6,1.7-1.5c0.3-0.9-0.2-1.8-1.1-2.2c-0.8-0.4-1.7-0.6-2.5-0.9c-0.8-0.2-1.6-0.6-2.4-1
			c-1.7-1.2-2.5-3.3-1.9-5.2c0.3-2,1.9-3.6,3.9-4c2.5-0.7,5.1-0.3,7.2,1.2c0.5,0.3,0.6,0.6,0.2,1.1c-0.3,0.4-0.4,0.9-0.7,1.3
			c-0.2,0.5-0.8,0.8-1.3,0.6c-0.1,0-0.2-0.1-0.3-0.2c-1-0.7-2.1-1-3.3-0.9c-0.7,0-1.4,0.4-1.7,1.1c-0.4,0.7-0.1,1.6,0.6,2
			c0.8,0.5,1.6,0.8,2.5,1c0.9,0.2,1.7,0.6,2.5,1C-4447.1,3796.5-4446.1,3799-4446.9,3801.2z"/>
		<path id="Контур_53" d="M-4445.7,3775.4c-0.4,0-0.5-0.1-0.5-0.5c0-5.7,0-11.5,0-17.2c0-0.4,0.1-0.5,0.5-0.5
			c1.1,0,2.2,0,3.3,0c0.4,0,0.5,0.1,0.5,0.5c0,2.9,0,5.7,0,8.6c0,2.8,0,5.7,0,8.5c0,0.4-0.1,0.6-0.6,0.6
			C-4443.6,3775.4-4444.6,3775.4-4445.7,3775.4z"/>
		<path id="Контур_54" d="M-4440,3787.7c0,2.8,0,5.7,0,8.5s0,5.7,0,8.5c0,0.4-0.1,0.6-0.6,0.6c-1.1,0-2.1,0-3.2,0
			c-0.3,0-0.5-0.1-0.5-0.5c0-5.8,0-11.5,0-17.2c0-0.4,0.1-0.5,0.5-0.5c1.1,0,2.2,0,3.3,0C-4440,3787.1-4440,3787.3-4440,3787.7z"/>
		<path id="Контур_55" d="M-4439.3,3760.6c-0.4,0-0.6-0.1-0.6-0.5c0-0.8,0-1.6,0-2.4c0-0.4,0.1-0.5,0.5-0.5c4.5,0,9,0,13.5,0
			c0.3,0,0.4,0.1,0.4,0.4c0,0.8,0,1.6,0,2.5c0,0.4-0.2,0.4-0.5,0.4c-1.4,0-2.7,0-4.1,0c-0.5,0-0.6,0.2-0.6,0.6c0,4.5,0,9.1,0,13.6
			c0,0.5-0.1,0.6-0.6,0.6c-1,0-2,0-3.1,0c-0.4,0-0.5-0.1-0.5-0.5c0-2.3,0-4.6,0-6.9v-6.7c0-0.7,0-0.7-0.7-0.7
			C-4436.7,3760.6-4438,3760.6-4439.3,3760.6z"/>
		<path id="Контур_56" d="M-4423.4,3787.5c0,0.9,0,1.7,0,2.6c0,0.4-0.1,0.4-0.4,0.4c-1.3,0-2.7,0-4,0c-0.6,0-0.7,0.2-0.7,0.7
			c0,4.5,0,9,0,13.4c0,0.5-0.1,0.7-0.7,0.7c-1,0-2,0-3,0c-0.4,0-0.5-0.1-0.5-0.5c0-2.3,0-4.6,0-6.9c0-2.3,0-4.5,0-6.8
			c0-0.4-0.1-0.6-0.5-0.6c-1.4,0-2.7,0-4.1,0c-0.4,0-0.5-0.1-0.5-0.5c0-0.8,0-1.6,0-2.4c0-0.3,0.1-0.5,0.4-0.5c4.5,0,9.1,0,13.6,0
			C-4423.6,3787.2-4423.4,3787.2-4423.4,3787.5z"/>
		<path id="Контур_57" d="M-4406.3,3787.7c-1.3,2.1-2.5,4.3-3.7,6.4c-0.8,1.4-1.6,2.7-2.4,4.1c-0.1,0.2-0.2,0.5-0.1,0.7
			c0,2,0,3.9,0,5.9c0,0.4-0.1,0.6-0.5,0.6c-1.1,0-2.1,0-3.2,0c-0.4,0-0.5-0.1-0.5-0.5c0-2,0-3.9,0-5.9c0-0.3-0.1-0.6-0.2-0.8
			c-2-3.5-4.1-6.9-6.1-10.4c-0.1-0.2-0.3-0.3-0.2-0.5c0.1-0.1,0.3-0.1,0.5-0.1c1,0,2,0,3,0c0.7-0.1,1.3,0.3,1.5,0.9
			c1.1,2.3,2.3,4.7,3.4,7.1c0,0.1,0.1,0.2,0.2,0.2c0.8-1.7,1.7-3.5,2.5-5.2c0.3-0.7,0.7-1.5,1.1-2.2c0.3-0.6,0.8-0.9,1.4-0.9
			c1,0,2,0,3.1,0C-4406.1,3787.2-4406.1,3787.3-4406.3,3787.7z"/>
		<path id="Контур_58" d="M-4576.4,3781.3c0,8.8-7.2,16-16,15.9c0,0,0,0-0.1,0c-8.8,0-15.9-7.2-15.9-16c0,0,0,0,0,0
			c0-8.8,7.2-15.9,16-15.9c0,0,0,0,0,0C-4583.6,3765.3-4576.4,3772.4-4576.4,3781.3C-4576.4,3781.3-4576.4,3781.3-4576.4,3781.3z"/>
		<path id="Контур_59" d="M-4632.1,3826.4c-0.5,0.7-1.1,1.3-1.6,2c-0.6,0.7-1.7,0.8-2.4,0.2c0,0,0,0-0.1-0.1
			c-3.6-3.3-6.7-7-9.5-11.1c-2.4-3.6-4.5-7.3-6.1-11.3c-1.9-4.6-3.3-9.4-4.1-14.3c-0.1-0.6-0.2-1.1-0.2-1.7
			c-0.1-0.9,0.5-1.6,1.3-1.7c0,0,0,0,0,0c0.9-0.1,1.9-0.2,2.8-0.3c0.9,0,1.7,0.7,1.8,1.7c0.2,1.5,0.5,3,0.8,4.5
			c0.7,2.9,1.5,5.8,2.7,8.6c1.8,4.6,4.2,8.9,7.1,12.9c2.2,3,4.6,5.7,7.3,8.2c0.7,0.5,0.8,1.5,0.3,2.2
			C-4632,3826.3-4632,3826.4-4632.1,3826.4z"/>
		<path id="Контур_60" d="M-4563.1,3838.7c-5.9,3-12.3,5.1-18.9,6.2c-3.3,0.6-6.6,0.8-9.9,0.8c-4.5,0-9.1-0.4-13.5-1.3
			c-1.5-0.3-2-1.1-1.6-2.6c0.2-0.7,0.4-1.3,0.5-2c0.2-0.9,1-1.4,1.9-1.3c0,0,0.1,0,0.1,0c4.8,1,9.6,1.4,14.5,1.2
			c4.2-0.2,8.4-0.8,12.5-1.9c4-1.1,7.9-2.5,11.6-4.4c0.8-0.5,1.8-0.3,2.3,0.5c0,0.1,0.1,0.1,0.1,0.2c0.4,0.7,0.8,1.3,1.2,2
			c0.5,0.8,0.3,1.8-0.4,2.3C-4562.9,3838.6-4563,3838.6-4563.1,3838.7z"/>
		<path id="Контур_61" d="M-4620,3730c-1.9,1-3.7,2.1-5.5,3.3c-4.5,3.1-8.6,6.8-12.1,11.1c-3.1,3.7-5.7,7.8-7.7,12.2
			c-0.3,0.7-0.6,1.4-0.9,2.1c-0.3,0.6-0.9,1-1.5,1c-0.4,0-0.7-0.1-1.1-0.3c-0.6-0.2-1.3-0.4-1.9-0.7c-0.9-0.3-1.3-1.2-1-2.1
			c0-0.1,0.1-0.1,0.1-0.2c0.9-2.1,1.9-4.2,3-6.2c2.3-4.1,5-7.9,8.1-11.4c2.9-3.2,6-6.1,9.5-8.7c2.5-1.8,5.1-3.5,7.7-5
			c0.2-0.1,0.5-0.3,0.7-0.4c0.8-0.5,1.8-0.3,2.3,0.5c0.1,0.1,0.1,0.2,0.2,0.3c0.3,0.6,0.6,1.3,0.9,1.9c0.5,0.8,0.3,1.8-0.4,2.3
			C-4619.7,3729.8-4619.8,3729.9-4620,3730z"/>
		<path id="Контур_62" d="M-4549.2,3736.3c-0.6,0.6-1.1,1.1-1.7,1.7c-0.6,0.6-1.6,0.6-2.3,0.1c-3-2.7-6.3-5.1-9.8-7.2
			c-3.4-2-7.1-3.6-10.9-4.9c-4.1-1.4-8.3-2.2-12.6-2.7c-0.9-0.1-1.8-0.1-2.7-0.2c-0.9,0-1.6-0.7-1.7-1.6c0-0.1,0-0.1,0-0.2
			c0-0.7,0-1.3,0-2c0-1.7,0.5-2.2,2.4-2.1c2.9,0.2,5.8,0.6,8.7,1.1c4.4,0.9,8.6,2.2,12.7,3.9c3.8,1.6,7.5,3.6,10.9,6
			c2.4,1.6,4.7,3.4,6.8,5.4c0.7,0.5,0.9,1.6,0.4,2.3C-4549,3736.1-4549.1,3736.2-4549.2,3736.3z"/>
		<path id="Контур_63" d="M-4614.4,3737.9c0,0.6-0.3,1.2-0.9,1.4c-4,2.2-7.7,5-10.9,8.2c-4.2,4.2-7.6,9.1-10,14.6
			c-0.3,0.9-1.3,1.3-2.1,1c0,0,0,0,0,0c-0.7-0.3-1.5-0.5-2.2-0.8c-0.9-0.2-1.5-1.2-1.2-2.1c0-0.2,0.1-0.3,0.2-0.5
			c1.8-4,4-7.8,6.7-11.2c2.8-3.6,6-6.8,9.5-9.5c2.3-1.8,4.7-3.3,7.2-4.7c0.7-0.6,1.8-0.4,2.4,0.3c0.1,0.2,0.2,0.3,0.3,0.5
			c0.3,0.7,0.6,1.4,1,2.1C-4614.5,3737.4-4614.4,3737.7-4614.4,3737.9z"/>
		<path id="Контур_64" d="M-4556.6,3743.6c-0.6,0.6-1.1,1.1-1.7,1.7c-0.6,0.7-1.7,0.8-2.4,0.1c0,0-0.1-0.1-0.1-0.1
			c-4-3.6-8.7-6.4-13.7-8.4c-3.8-1.5-7.8-2.6-11.9-3.1c-0.9-0.1-1.8-0.2-2.7-0.2c-0.9,0.1-1.7-0.6-1.8-1.5c0-0.1,0-0.2,0-0.3
			c0-0.4,0-0.8,0-1.1c0-0.4,0-0.7,0-1.1c-0.1-0.9,0.5-1.7,1.4-1.9c0.2,0,0.4,0,0.5,0c3.1,0.2,6.2,0.7,9.2,1.4
			c5.4,1.3,10.6,3.4,15.3,6.3c2.7,1.7,5.3,3.5,7.6,5.6c0.7,0.6,0.8,1.6,0.2,2.3C-4556.5,3743.5-4556.6,3743.6-4556.6,3743.6z"/>
		<path id="Контур_65" d="M-4472.3,3757.7c0,5.8,0,11.5,0,17.2c0,0.4-0.1,0.5-0.5,0.5c-0.6,0-1.1,0-1.7,0
			c-0.6,0-1.2-0.3-1.6-0.8c-2-2.6-4.1-5.2-6.1-7.7c-0.7-0.9-1.5-1.9-2.3-2.9c0,3.7,0,7.2,0,10.8c0,0.5-0.1,0.6-0.6,0.6
			c-0.9,0-1.7,0-2.6,0c-0.5,0-0.5-0.2-0.5-0.6c0-4.9,0-9.8,0-14.7c0-0.8,0-1.6,0-2.4c0-0.3,0.1-0.5,0.5-0.5c0.6,0,1.3,0,1.9,0
			c0.5,0,1,0.2,1.2,0.6c2.8,3.5,5.6,7.1,8.4,10.6c0,0.1,0.1,0.1,0.3,0.2c0-0.6-0.1-1.2-0.1-1.7c0-3.1,0-6.2,0-9.3
			c0-0.4,0.1-0.5,0.5-0.5c0.9,0,1.9,0,2.8,0C-4472.5,3757.3-4472.3,3757.4-4472.3,3757.7z"/>
		<path id="Контур_66" d="M-4517.7,3804.8c0,0.4-0.1,0.6-0.6,0.6c-0.6,0-1.3,0-1.9,0c-0.5,0-0.9-0.3-1.1-0.6
			c-1.7-2.1-3.4-4.3-5.1-6.4c-1.1-1.4-2.3-2.8-3.5-4.2c0,0.3,0,0.5,0,0.8c0,3.4,0,6.7,0,10c0,0.4-0.1,0.5-0.5,0.5
			c-0.9,0-1.9,0-2.8,0c-0.4,0-0.5-0.2-0.5-0.5c0-5.7,0-11.4,0-17.1c0-0.4,0.1-0.5,0.5-0.5c0.6,0,1.2,0,1.8,0c0.5,0,1,0.2,1.2,0.6
			c1.8,2.3,3.6,4.6,5.4,6.9c1,1.3,2.1,2.6,3.1,3.9c0,0,0.1,0,0.1,0c-0.1-1-0.1-2.1-0.1-3.1c0-2.6,0-5.1,0-7.7c0-0.4,0.1-0.6,0.5-0.5
			c0.9,0,1.8,0,2.6,0c0.4,0,0.6,0.1,0.6,0.6c0,2.7,0,5.4,0,8.1C-4517.7,3798.8-4517.7,3801.8-4517.7,3804.8z"/>
		<path id="Контур_67" d="M-4459.9,3804.8c-0.9-1.5-1.8-2.9-2.7-4.4c-0.5-1-1.2-1.9-2.1-2.6c0-0.1,0.1-0.2,0.2-0.2
			c2.5-1,3.8-3.7,3.2-6.3c-0.2-1-0.7-1.8-1.4-2.5c-1.4-1.1-3.1-1.7-4.8-1.6c-2.1-0.1-4.2,0-6.3,0c-0.4,0-0.5,0.1-0.5,0.5
			c0,5.7,0,11.5,0,17.2c0,0.4,0.1,0.5,0.5,0.5c1,0,2,0,3.1,0c0.5,0,0.7-0.2,0.7-0.7c0-1.8,0-3.7,0-5.5c0-0.2-0.1-0.4,0.2-0.5
			c0.8-0.2,1.7,0.1,2.2,0.8c0.9,1.6,1.9,3.3,2.8,4.9c0.3,0.6,0.8,0.9,1.5,0.9c1.1,0,2.2,0,3.3,0c0.2,0,0.4,0.1,0.5-0.1
			S-4459.8,3804.9-4459.9,3804.8z M-4466.7,3795.3c-1.1,0.4-2.2,0.5-3.3,0.4c-0.3,0-0.2-0.2-0.2-0.4c0-0.8,0-1.6,0-2.4
			c0-0.7,0-1.4,0-2.1c0-0.3,0.1-0.5,0.4-0.5c1-0.1,2,0,3,0.3c0.9,0.3,1.5,1.2,1.4,2.1C-4465.2,3793.8-4465.8,3794.8-4466.7,3795.3
			L-4466.7,3795.3z"/>
		<path id="Контур_68" d="M-4610.7,3749.1c-4.9,2.8-9.1,6.6-12.2,11.2c-1.2,1.7-2.2,3.5-3.1,5.5c-0.3,0.7-0.9,1.1-1.6,1.1
			c-0.7-0.2-1.4-0.4-2-0.6c-0.3-0.1-0.5-0.2-0.8-0.3c-0.9-0.2-1.4-1.1-1.2-2c0-0.1,0.1-0.3,0.2-0.4c0.3-0.8,0.7-1.5,1.1-2.3
			c3.1-5.8,7.5-10.9,12.9-14.8c1.2-0.9,2.5-1.7,3.8-2.5c0.7-0.6,1.8-0.5,2.4,0.3c0.1,0.2,0.2,0.4,0.3,0.6c0.3,0.7,0.7,1.4,1,2.1
			C-4609.6,3747.8-4609.9,3748.7-4610.7,3749.1z"/>
		<path id="Контур_69" d="M-4564.2,3751.2c-0.6,0.6-1.2,1.2-1.8,1.8c-0.6,0.7-1.5,0.7-2.2,0.2c0,0-0.1-0.1-0.1-0.1
			c-2-1.7-4.1-3.1-6.4-4.4c-3.1-1.7-6.5-2.9-9.9-3.7c-1.5-0.3-3.1-0.5-4.6-0.7c-0.9,0-1.7-0.7-1.7-1.7c0,0,0-0.1,0-0.1
			c0-0.4,0-0.8,0-1.2h0c0-0.5,0-0.9,0-1.4c0-0.8,0.7-1.5,1.5-1.5c0.1,0,0.1,0,0.2,0c1.6,0.1,3.2,0.3,4.7,0.6
			c4.4,0.8,8.7,2.3,12.6,4.5c2.6,1.4,5.1,3.1,7.4,5.1c0.7,0.5,0.9,1.5,0.4,2.2C-4564,3751.1-4564.1,3751.1-4564.2,3751.2z"/>
		<path id="Контур_70" d="M-4610,3815.8c-0.4,0.8-0.7,1.6-1.1,2.4c-0.4,0.8-1.4,1.1-2.2,0.7c0,0,0,0,0,0c-1.8-1-3.4-2-5-3.3
			c-2.4-1.8-4.5-3.8-6.5-6.1c-2.4-2.8-4.5-5.9-6.1-9.3c-0.2-0.4-0.4-0.9-0.6-1.3c-0.3-0.8,0.1-1.6,0.9-2c0.9-0.4,1.8-0.7,2.7-1
			c0.1,0,0.2-0.1,0.3-0.1c0.7,0,1.4,0.5,1.6,1.2c0.5,1.2,1.2,2.4,1.9,3.6c2.4,4,5.5,7.4,9.2,10.2c1.2,0.9,2.5,1.8,3.8,2.6
			c0.3,0.2,0.6,0.4,0.9,0.6C-4609.8,3814.5-4609.7,3815.2-4610,3815.8z"/>
		<path id="Контур_71" d="M-4536.9,3798.1c0,2.2-0.9,4.3-2.6,5.7c-1.1,0.9-2.4,1.4-3.8,1.6c-1.9,0.3-3.9,0-5.7-0.9
			c-1.8-1-3.1-2.8-3.4-4.9c-0.1-0.7-0.2-1.3-0.2-2c0-3.3,0-6.6,0-9.8c0-0.5,0.1-0.7,0.7-0.7c1,0,2,0,3,0c0.5,0,0.6,0.1,0.6,0.6
			c0,3.4,0,6.8,0,10.2c-0.1,1,0.2,2,0.8,2.8c0.9,1.1,2.5,1.6,3.9,1.1c1.4-0.4,2.3-1.7,2.4-3.1c0.2-1.9,0-3.8,0.1-5.3
			c0-2.1,0-3.9,0-5.7c0-0.4,0.1-0.6,0.5-0.6c1.1,0,2.1,0,3.2,0c0.4,0,0.5,0.1,0.5,0.5C-4536.9,3791.2-4536.8,3794.7-4536.9,3798.1z"
			/>
		<path id="Контур_72" d="M-4534.9,3774.5c-2.1-5.6-4.3-11.2-6.5-16.8c-0.1-0.3-0.3-0.5-0.6-0.4c-1.1,0-2.2,0-3.3,0
			c-0.3-0.1-0.7,0.2-0.7,0.5c-1,2.6-2,5.1-3,7.7c-1.2,3.2-2.5,6.3-3.7,9.5c-0.1,0.3-0.1,0.4,0.3,0.4c0.9,0,1.8,0,2.6,0
			c0.8,0.1,1.5-0.4,1.7-1.2c0.3-0.8,0.6-1.6,0.8-2.4c0-0.3,0.3-0.5,0.6-0.4c1,0,2,0,3,0c1,0,2,0,3,0c0.3-0.1,0.6,0.2,0.7,0.5
			c0,0,0,0,0,0c0.2,0.8,0.5,1.5,0.7,2.2c0.1,0.9,0.9,1.5,1.8,1.3c0.7,0,1.4,0,2,0C-4534.5,3775.4-4534.5,3775.6-4534.9,3774.5z
			 M-4541.7,3768.5c-1.4,0-2.8,0-4.2,0c-0.3,0-0.3-0.1-0.2-0.4c0.6-1.6,1.1-3.3,1.7-4.9c0.2-0.6,0.4-1.3,0.7-2.1
			c0.7,1.9,1.3,3.7,1.9,5.6c0.2,0.5,0.3,0.9,0.5,1.4C-4541.3,3768.4-4541.4,3768.5-4541.7,3768.5L-4541.7,3768.5z"/>
		<path id="Контур_73" d="M-4452.7,3775c-0.4-0.9-0.7-1.8-1-2.6c-1.9-4.9-3.8-9.7-5.6-14.6c-0.1-0.3-0.4-0.5-0.7-0.5
			c-0.5,0-1.1,0-1.6,0c-0.5,0-1,0-1.6,0c-0.5,0-0.7,0.1-0.9,0.6c-1.3,3.4-2.6,6.8-3.9,10.3c-0.9,2.3-1.8,4.6-2.7,6.9
			c-0.1,0.3-0.1,0.4,0.3,0.4c0.9,0,1.7,0,2.6,0c0.8,0.1,1.6-0.5,1.7-1.3c0.3-0.8,0.5-1.6,0.8-2.4c0.1-0.3,0.3-0.5,0.6-0.4
			c2,0,4,0,6.1,0c0.3,0,0.5,0.1,0.5,0.4c0.3,0.9,0.6,1.7,0.9,2.5c0.2,0.7,0.8,1.2,1.6,1.1c0.9,0,1.8,0,2.7,0
			C-4452.6,3775.5-4452.6,3775.3-4452.7,3775z M-4459.7,3768.5c-1.4,0-2.8,0-4.1,0c-0.4,0-0.4-0.2-0.3-0.5c0.7-1.9,1.3-3.9,2-5.8
			c0.1-0.3,0.2-0.7,0.4-1.1c0.8,2.4,1.6,4.7,2.4,7C-4459.3,3768.4-4459.4,3768.5-4459.7,3768.5L-4459.7,3768.5z"/>
		<path id="Контур_74" d="M-4489.8,3774.9c-0.7-1.8-1.5-3.7-2.2-5.5c-1.5-3.9-3-7.8-4.5-11.7c-0.1-0.3-0.4-0.5-0.6-0.4
			c-1.1,0-2.1,0-3.2,0c-0.6,0-0.8,0.2-1,0.7c-1.3,3.4-2.6,6.9-4,10.3c-0.9,2.2-1.7,4.4-2.6,6.6c-0.2,0.4-0.1,0.6,0.4,0.6
			c0.9,0,1.8,0,2.6,0c0.7,0.1,1.4-0.4,1.5-1.1c0.3-0.8,0.6-1.7,0.9-2.5c0.1-0.3,0.3-0.4,0.6-0.4c2,0,4,0,6,0c0.3,0,0.6,0.2,0.7,0.5
			c0.3,0.8,0.5,1.6,0.8,2.4c0.1,0.8,0.9,1.3,1.7,1.2h1.2c0.4,0,0.9,0,1.3,0C-4489.7,3775.5-4489.6,3775.4-4489.8,3774.9z
			 M-4496.9,3768.5c-1.3,0-2.6,0-4,0c-0.3,0-0.4-0.1-0.3-0.4c0.8-2.3,1.5-4.5,2.4-7c0.3,1.2,0.7,2.1,1.1,3.2
			c0.4,1.2,0.8,2.4,1.2,3.7C-4496.4,3768.3-4496.4,3768.5-4496.9,3768.5L-4496.9,3768.5z"/>
		<path id="Контур_75" d="M-4477,3802.7c0,0.7,0,1.5,0,2.2c0,0.3-0.1,0.4-0.4,0.4c-3.6,0-7.2,0-10.8,0c-0.4,0-0.4-0.2-0.4-0.5
			v-8.5c0-2.8,0-5.7,0-8.5c0-0.4,0.1-0.6,0.6-0.6c3.5,0,7.1,0,10.6,0c0.4,0,0.6,0.1,0.5,0.5c0,0.8,0,1.5,0,2.3
			c0,0.4-0.2,0.5-0.5,0.5c-2.1,0-4.2,0-6.3,0c-0.5,0-0.6,0.1-0.6,0.6c0,1,0,2.1,0,3.1c0,0.4,0.1,0.5,0.5,0.5c1.5,0,3.1,0,4.6,0
			c0.5,0,0.6,0.2,0.6,0.6c0,0.7,0,1.4,0,2c0,0.4-0.1,0.5-0.5,0.5c-1.6,0-3.1,0-4.7,0c-0.5,0-0.6,0.1-0.6,0.6c0,1.1,0,2.1,0,3.2
			c0,0.5,0.2,0.6,0.6,0.6c2.1,0,4.2,0,6.2,0C-4477.2,3802.1-4477,3802.2-4477,3802.7z"/>
		<path id="Контур_76" d="M-4490.4,3787.7c-0.8,1.9-1.6,3.9-2.4,5.8c-1.4,3.4-2.8,6.8-4.1,10.3c-0.6,1.5-0.6,1.5-2.2,1.5
			c-0.6,0-1.2,0-1.8,0c-0.3,0-0.5-0.1-0.6-0.4c-1.8-4.5-3.6-9-5.4-13.5c-0.5-1.2-1-2.5-1.5-3.7c-0.2-0.4-0.1-0.5,0.3-0.5
			c0.9,0,1.8,0,2.7,0c0.8-0.1,1.5,0.4,1.7,1.2c0.6,1.7,1.2,3.4,1.8,5c0.8,2.3,1.7,4.5,2.4,6.8c0.1,0.1,0.2,0.1,0.2,0
			c1.2-4,2.8-8,4.2-11.9c0.2-0.7,0.8-1.2,1.5-1.1c0.9,0,1.8,0,2.7,0C-4490.2,3787.1-4490.2,3787.3-4490.4,3787.7z"/>
		<path id="Контур_77" d="M-4446.9,3801.2c-0.7,2.4-2.8,4.1-5.3,4.2c-0.4,0-0.7,0-1.1,0.1c-2.1,0-4.2-0.8-5.9-2.1
			c-0.3-0.2-0.3-0.4-0.1-0.7c0.3-0.5,0.6-1,0.9-1.4c0.3-0.6,1-0.8,1.6-0.6c0.1,0,0.2,0.1,0.2,0.2c0.4,0.3,0.9,0.5,1.3,0.8
			c0.8,0.4,1.8,0.6,2.7,0.4c0.9,0,1.6-0.6,1.7-1.5c0.3-0.9-0.2-1.8-1.1-2.2c-0.8-0.4-1.7-0.6-2.5-0.9c-0.8-0.2-1.6-0.6-2.4-1
			c-1.7-1.2-2.5-3.3-1.9-5.2c0.3-2,1.9-3.6,3.9-4c2.5-0.7,5.1-0.3,7.2,1.2c0.5,0.3,0.6,0.6,0.2,1.1c-0.3,0.4-0.4,0.9-0.7,1.3
			c-0.2,0.5-0.8,0.8-1.3,0.6c-0.1,0-0.2-0.1-0.3-0.2c-1-0.7-2.1-1-3.3-0.9c-0.7,0-1.4,0.4-1.7,1.1c-0.4,0.7-0.1,1.6,0.6,2
			c0.8,0.5,1.6,0.8,2.5,1c0.9,0.2,1.7,0.6,2.5,1C-4447.1,3796.5-4446.1,3799-4446.9,3801.2z"/>
		<path id="Контур_78" d="M-4521.8,3770.3c-0.2,3-2.7,5.3-5.7,5.3c-0.3,0-0.5,0-0.8,0c-2.1,0-4.2-0.7-5.8-2
			c-0.3-0.3-0.4-0.5-0.1-0.8c0.3-0.4,0.6-0.9,0.9-1.4c0.3-0.6,1-0.8,1.6-0.5c0.1,0,0.1,0.1,0.2,0.1c0.5,0.4,1.1,0.7,1.7,0.9
			c0.9,0.4,1.9,0.4,2.8,0.2c0.7-0.2,1.3-0.8,1.3-1.5c0.2-0.7-0.2-1.5-0.8-1.9c-0.6-0.4-1.3-0.6-2-0.8c-0.8-0.2-1.6-0.5-2.4-0.8
			c-3.1-1.4-3.3-5.1-2.1-7.2c0.8-1.4,2.3-2.4,3.9-2.7c2.4-0.5,4.8,0,6.8,1.4c0.3,0.2,0.4,0.4,0.2,0.8c-0.3,0.4-0.5,1-0.8,1.4
			c-0.5,0.8-0.9,0.9-1.7,0.4c-0.9-0.6-2.1-1-3.2-0.9c-0.2,0-0.4,0.1-0.6,0.1c-0.8,0.2-1.3,0.8-1.3,1.6c0,0.7,0.5,1.3,1.1,1.6
			c0.7,0.3,1.5,0.6,2.2,0.8c1,0.3,2,0.7,2.8,1.2C-4522.3,3766.8-4521.5,3768.5-4521.8,3770.3z"/>
		<path id="Контур_79" d="M-4544.7,3824.6c0.1,2.3-1.6,4.3-3.9,4.6c-0.2,0-0.5,0.1-0.7,0.3c-2.5,2.3-5.2,4.3-8.1,6
			c-0.8,0.5-1.8,0.3-2.4-0.5c0-0.1-0.1-0.1-0.1-0.2c-0.5-0.7-0.9-1.5-1.3-2.3c-0.4-0.8-0.2-1.8,0.6-2.2c2.4-1.6,4.8-3.4,7-5.3
			c0.2-0.2,0.4-0.5,0.5-0.8c0.3-2.3,2.3-3.9,4.6-3.6c0.7,0.1,1.4,0.4,2,0.8C-4545.3,3822.2-4544.7,3823.3-4544.7,3824.6z"/>
		<path id="Контур_80" d="M-4406.3,3787.7c-1.3,2.1-2.5,4.3-3.7,6.4c-0.8,1.4-1.6,2.7-2.4,4.1c-0.1,0.2-0.2,0.5-0.1,0.7
			c0,2,0,3.9,0,5.9c0,0.4-0.1,0.6-0.5,0.6c-1.1,0-2.1,0-3.2,0c-0.4,0-0.5-0.1-0.5-0.5c0-2,0-3.9,0-5.9c0-0.3-0.1-0.6-0.2-0.8
			c-2-3.5-4.1-6.9-6.1-10.4c-0.1-0.2-0.3-0.3-0.2-0.5c0.1-0.1,0.3-0.1,0.5-0.1c1,0,2,0,3,0c0.7-0.1,1.3,0.3,1.5,0.9
			c1.1,2.3,2.3,4.7,3.4,7.1c0,0.1,0.1,0.2,0.2,0.2c0.8-1.7,1.7-3.5,2.5-5.2c0.3-0.7,0.7-1.5,1.1-2.2c0.3-0.6,0.8-0.9,1.4-0.9
			c1,0,2,0,3.1,0C-4406.1,3787.2-4406.1,3787.3-4406.3,3787.7z"/>
		<path id="Контур_81" d="M-4611.3,3801.8c-0.6,0.7-1.2,1.4-1.8,2.1c-0.5,0.6-1.4,0.7-2,0.2c0,0-0.1-0.1-0.1-0.1
			c-3.3-3.2-5.8-7.1-7.4-11.5c-0.6-1.6-1-3.3-1.4-5c-0.3-0.8,0.2-1.8,1.1-2c0.2-0.1,0.4-0.1,0.5-0.1c0.7-0.1,1.5-0.1,2-0.2
			c1.3,0,1.8,0.4,2.1,1.5c0.7,3.6,2.2,7.1,4.4,10.1c0.8,1,1.6,2,2.5,2.9C-4610.8,3800.2-4610.7,3801.1-4611.3,3801.8
			C-4611.3,3801.8-4611.3,3801.8-4611.3,3801.8z"/>
		<path id="Контур_82" d="M-4571.8,3758.9c-0.5,0.6-1.1,1.1-1.7,1.7c-0.6,0.6-1.6,0.7-2.3,0.1c-3.9-3.1-8.5-5-13.4-5.6
			c-1.2-0.2-1.7-0.7-1.7-1.9v-0.9c0-0.4,0-0.8,0-1.2c0-0.9,0.6-1.6,1.5-1.6c0.1,0,0.2,0,0.3,0c3.2,0.3,6.3,1.1,9.3,2.4
			c2.8,1.2,5.4,2.8,7.8,4.7c0.7,0.5,0.9,1.5,0.4,2.2C-4571.6,3758.7-4571.7,3758.8-4571.8,3758.9z"/>
		<path id="Контур_83" d="M-4579.1,3810.7c-3.1,1.4-6.4,2.3-9.8,2.7c-1.2,0.1-2.3,0.2-3.5,0.2c-1.7,0-3.4-0.1-5-0.4
			c-0.9-0.1-1.5-0.8-1.5-1.7c0-0.1,0-0.2,0.1-0.3c0.2-0.8,0.4-1.7,0.7-2.5c0.2-0.8,1-1.3,1.8-1.1c2.1,0.3,4.3,0.4,6.4,0.2
			c2.7-0.2,5.3-0.9,7.8-1.9c1.3-0.6,1.9-0.4,2.7,0.9c0.3,0.6,0.7,1.1,1,1.7c0.5,0.7,0.3,1.6-0.4,2.1
			C-4578.9,3810.6-4579,3810.7-4579.1,3810.7z"/>
		<path id="Контур_84" d="M-4506.3,3760.2c0,0.3-0.1,0.5-0.5,0.5c-1.4,0-2.7,0-4.1,0c-0.4,0-0.6,0.1-0.6,0.6
			c0,2.3,0,4.6,0,6.9c0,2.3,0,4.5,0,6.8c0,0.4-0.1,0.6-0.6,0.6c-1,0-2.1,0-3.1,0c-0.4,0-0.5-0.1-0.5-0.6c0-4.5,0-9.1,0-13.6
			c0-0.5-0.1-0.7-0.7-0.7c-1.3,0-2.6,0-3.9,0c-0.5,0-0.6-0.2-0.6-0.6c0-0.7,0-1.5,0-2.2c0-0.4,0.1-0.6,0.6-0.6c3.9,0,7.9,0,11.8,0
			c0.5,0,1.1,0,1.6,0c0.4,0,0.5,0.1,0.5,0.5C-4506.3,3758.6-4506.3,3759.4-4506.3,3760.2z"/>
		<path id="Контур_85" d="M-4423.4,3790.1c0,0.4-0.1,0.4-0.4,0.4c-1.3,0-2.7,0-4,0c-0.6,0-0.7,0.2-0.7,0.7c0,4.5,0,9,0,13.4
			c0,0.5-0.1,0.7-0.7,0.7c-1,0-2,0-3,0c-0.4,0-0.5-0.1-0.5-0.5c0-2.3,0-4.6,0-6.9c0-2.3,0-4.5,0-6.8c0-0.4-0.1-0.6-0.5-0.6
			c-1.4,0-2.7,0-4.1,0c-0.4,0-0.5-0.1-0.5-0.5c0-0.8,0-1.6,0-2.4c0-0.3,0.1-0.5,0.4-0.5c4.5,0,9.1,0,13.6,0c0.3,0,0.4,0.1,0.4,0.4
			C-4423.4,3788.4-4423.5,3789.2-4423.4,3790.1z"/>
		<path id="Контур_86" d="M-4425.4,3760.2c0,0.4-0.2,0.4-0.5,0.4c-1.4,0-2.7,0-4.1,0c-0.5,0-0.6,0.2-0.6,0.6
			c0,4.5,0,9.1,0,13.6c0,0.5-0.1,0.6-0.6,0.6c-1,0-2,0-3.1,0c-0.4,0-0.5-0.1-0.5-0.5c0-2.3,0-4.6,0-6.9v-6.7c0-0.7,0-0.7-0.7-0.7
			c-1.3,0-2.5,0-3.8,0c-0.4,0-0.6-0.1-0.6-0.5c0-0.8,0-1.6,0-2.4c0-0.4,0.1-0.5,0.5-0.5c4.5,0,9,0,13.5,0c0.3,0,0.4,0.1,0.4,0.4
			C-4425.4,3758.5-4425.4,3759.4-4425.4,3760.2z"/>
		<path id="Контур_87" d="M-4441.9,3774.9c0,0.4-0.1,0.6-0.6,0.6c-1.1,0-2.1,0-3.2,0c-0.4,0-0.5-0.1-0.5-0.5
			c0-5.7,0-11.5,0-17.2c0-0.4,0.1-0.5,0.5-0.5c1.1,0,2.2,0,3.3,0c0.4,0,0.5,0.1,0.5,0.5c0,2.9,0,5.7,0,8.6
			C-4441.9,3769.2-4441.9,3772-4441.9,3774.9z"/>
		<path id="Контур_88" d="M-4440,3804.8c0,0.4-0.1,0.6-0.6,0.6c-1.1,0-2.1,0-3.2,0c-0.3,0-0.5-0.1-0.5-0.5
			c0-5.8,0-11.5,0-17.2c0-0.4,0.1-0.5,0.5-0.5c1.1,0,2.2,0,3.3,0c0.5,0,0.5,0.2,0.5,0.6c0,2.8,0,5.7,0,8.5S-4440,3801.9-4440,3804.8
			z"/>
		<path id="Контур_89" d="M-4510,3787.6c0,5.7,0,11.5,0,17.2c0,0.3-0.1,0.5-0.5,0.5c-1.1,0-2.2,0-3.3,0
			c-0.4,0-0.5-0.1-0.5-0.5c0-2.9,0-5.7,0-8.6c0-2.8,0-5.7,0-8.5c0-0.4,0.1-0.6,0.6-0.6c1.1,0,2.1,0,3.2,0
			C-4510.1,3787.2-4510,3787.3-4510,3787.6z"/>
		<path id="Контур_90" d="M-4618.9,3834.4c0,0.2-0.1,0.5-0.2,0.7c-0.4,0.8-0.7,1.6-1.1,2.3c-0.3,0.8-1.3,1.3-2.1,0.9
			c-0.1,0-0.2-0.1-0.3-0.2c-3-1.6-5.8-3.4-8.5-5.4c-0.8-0.5-1-1.5-0.5-2.3c0.1-0.1,0.2-0.2,0.3-0.3c0.5-0.6,1-1.2,1.5-1.8
			c0.5-0.7,1.6-0.9,2.3-0.3c0,0,0,0,0.1,0.1c1.4,1,2.8,2,4.2,2.9c1.1,0.7,2.2,1.3,3.3,1.9
			C-4619.3,3833.2-4618.9,3833.7-4618.9,3834.4z"/>
		<path id="Контур_91" d="M-4593.8,3719.2v1c0,0.4,0,0.8,0,1.1c0.1,0.9-0.6,1.7-1.5,1.8c-0.1,0-0.1,0-0.2,0
			c-3.1,0.2-6.1,0.6-9.1,1.2c-0.8,0.2-1.7-0.3-1.9-1.2c-0.2-0.8-0.5-1.7-0.7-2.5c-0.2-0.9,0.3-1.8,1.2-2c0,0,0.1,0,0.1,0
			c3.3-0.7,6.6-1.2,10-1.3C-4594.4,3717.2-4593.8,3717.8-4593.8,3719.2z"/>
		<path id="Контур_92" d="M-4648.2,3764.4c-0.6,2-1.1,4.1-1.5,6.2c-0.1,0.8-0.3,1.6-0.4,2.4c0,1-0.8,1.8-1.8,1.8
			c-0.1,0-0.3,0-0.4,0c-0.7-0.1-1.4-0.1-2.1-0.2c-0.9,0-1.7-0.8-1.6-1.7c0-0.1,0-0.1,0-0.2c0.3-2.1,0.6-4.1,1.1-6.1
			c0.3-1.3,0.7-2.6,1.1-3.9c0.2-0.9,1.1-1.4,2-1.2c0.1,0,0.1,0,0.2,0.1c0.8,0.3,1.6,0.6,2.3,0.8c0.9,0.2,1.4,1.1,1.2,2
			C-4648.2,3764.3-4648.2,3764.3-4648.2,3764.4z"/>
		<path id="Контур_93" d="M-4593.6,3831.1c0,0.6-0.1,1.3-0.1,1.9c0,1.5-0.6,2.1-2.3,2c-2.4-0.2-4.8-0.5-7.1-1
			c-0.9-0.2-1.4-1-1.2-1.9c0.2-1,0.5-1.9,0.8-2.8c0.3-0.7,1-1.1,1.7-1c2.2,0.4,4.4,0.7,6.6,0.8c0.9,0,1.7,0.8,1.7,1.7
			C-4593.6,3830.9-4593.6,3831-4593.6,3831.1z"/>
		<path id="Контур_94" d="M-4639.3,3796.9c-0.8,0.3-1.6,0.7-2.4,1c-0.8,0.4-1.7,0-2.1-0.8c0-0.1-0.1-0.2-0.1-0.2
			c-0.8-2.5-1.4-5-1.7-7.6c0-0.1,0-0.1,0-0.2c-0.1-0.9,0.6-1.7,1.4-1.7c0,0,0,0,0.1,0c0.9-0.1,1.7-0.2,2.6-0.2
			c0.8-0.1,1.6,0.5,1.7,1.4c0.4,2.1,0.8,4.2,1.4,6.3C-4638,3795.7-4638.5,3796.6-4639.3,3796.9z"/>
		<path id="Контур_95" d="M-4567.4,3827.9c0,0.7-0.3,1.3-1,1.6c-2.2,1.1-4.6,2.1-6.9,2.9c-0.8,0.3-1.8-0.1-2.1-0.9
			c0-0.1-0.1-0.2-0.1-0.3c-0.2-0.8-0.4-1.5-0.6-2.3c-0.3-0.9,0.2-1.8,1-2.1c0,0,0,0,0.1,0c2-0.7,3.9-1.5,5.8-2.4
			c0.8-0.5,1.8-0.2,2.2,0.6c0,0,0,0,0,0.1c0.5,0.7,0.9,1.5,1.3,2.3C-4567.4,3827.4-4567.4,3827.6-4567.4,3827.9z"/>
		<path id="Контур_96" d="M-4593.8,3729.7v1.1c0,0.4,0,0.8,0,1.2c0,0.9-0.7,1.6-1.5,1.7c-2.2,0.1-4.3,0.4-6.4,0.8
			c-0.8,0.2-1.7-0.3-1.9-1.2c-0.2-0.8-0.5-1.7-0.7-2.5c-0.3-0.9,0.2-1.8,1.1-2c0.1,0,0.1,0,0.2,0c2.4-0.5,4.8-0.8,7.2-1
			c0.9-0.2,1.8,0.4,2,1.3C-4593.8,3729.3-4593.8,3729.5-4593.8,3729.7z"/>
		<path id="Контур_97" d="M-4624.9,3817.2c0,0.4-0.1,0.9-0.4,1.2c-0.5,0.6-1,1.2-1.6,1.8c-0.5,0.7-1.6,0.9-2.3,0.4
			c-0.1-0.1-0.1-0.1-0.2-0.2c-1.8-1.7-3.5-3.5-5-5.5c-0.6-0.7-0.6-1.7,0.1-2.3c0.1-0.1,0.2-0.2,0.3-0.2c0.6-0.4,1.2-0.9,1.8-1.3
			c0.7-0.6,1.7-0.5,2.3,0.2c0,0,0.1,0.1,0.1,0.1c1.4,1.7,2.8,3.3,4.4,4.8C-4625,3816.4-4624.9,3816.8-4624.9,3817.2z"/>
		<path id="Контур_98" d="M-4638.3,3767.9c-0.6,2-1,4.1-1.4,6.1c-0.2,1.2-0.8,1.6-2.1,1.5c-0.6-0.1-1.4-0.1-2.2-0.2
			c-0.9,0-1.6-0.8-1.5-1.7c0,0,0-0.1,0-0.1c0.2-1.5,0.4-2.9,0.8-4.4c0.2-1,0.5-2,0.8-3c0.2-0.9,1-1.5,1.9-1.4c0.2,0,0.3,0.1,0.4,0.1
			c0.7,0.3,1.5,0.5,2.2,0.8C-4638.5,3766.1-4638,3767-4638.3,3767.9C-4638.3,3767.9-4638.3,3767.9-4638.3,3767.9z"/>
		<path id="Контур_99" d="M-4563.7,3812.6c0,0.4-0.1,0.9-0.5,1.2c-1.3,1.2-2.7,2.3-4.2,3.2c-0.7,0.5-1.7,0.3-2.2-0.5
			c0,0,0,0,0-0.1c-0.5-0.7-0.9-1.5-1.4-2.2c-0.4-0.7-0.2-1.5,0.4-2c1.2-0.9,2.4-1.8,3.5-2.7c0.6-0.5,1.5-0.4,2,0.1
			c0.7,0.6,1.3,1.3,2,2C-4563.8,3811.8-4563.6,3812.2-4563.7,3812.6z"/>
		<path id="Контур_100" d="M-4629.4,3793.3c-0.7,0.2-1.4,0.5-2.1,0.7c-0.8,0.4-1.8,0-2.1-0.8c-0.1-0.1-0.1-0.2-0.1-0.3
			c-0.4-1.5-0.8-3-1-4.5c-0.2-0.9,0.3-1.8,1.1-2c0.2,0,0.3-0.1,0.5-0.1c0.7-0.1,1.5-0.1,2.1-0.2c1.3,0,1.9,0.5,2.1,1.6
			c0.2,1.1,0.4,2.2,0.7,3.3c0.3,0.9-0.1,1.8-1,2.1C-4629.3,3793.3-4629.3,3793.3-4629.4,3793.3z"/>
		<path id="Контур_101" d="M-4628.2,3771.6c-0.3,1.2-0.6,2.3-0.8,3.5c-0.2,1.1-0.8,1.6-2.2,1.5c-0.6-0.1-1.4-0.1-2.2-0.2
			c-0.8-0.1-1.5-0.8-1.4-1.6c0,0,0,0,0-0.1c0.2-1.8,0.6-3.5,1.1-5.2c0.3-0.8,1.2-1.1,2-0.9c0.8,0.3,1.7,0.6,2.5,0.9
			C-4628.4,3769.8-4627.9,3770.7-4628.2,3771.6z"/>
		<path id="Контур_102" d="M-4593.8,3742.8c0,0.8-0.5,1.4-1.3,1.5c-1.4,0.2-2.8,0.4-4.2,0.5c-0.8,0.1-1.5-0.4-1.6-1.2
			c-0.2-0.8-0.4-1.5-0.6-2.3c-0.3-0.8,0.1-1.8,0.9-2.1c0.1,0,0.3-0.1,0.4-0.1c1.5-0.3,3-0.5,4.5-0.6c0.9-0.2,1.7,0.4,1.9,1.2
			c0,0.2,0,0.4,0,0.6c0,0.4,0,0.7,0,1.1C-4593.8,3741.9-4593.8,3742.4-4593.8,3742.8z"/>
		<path id="Контур_103" d="M-4584.6,3823.6c-1.4,0.3-2.7,0.5-4.1,0.6c-1.4,0.3-2.2-0.9-2-2.1c0.1-0.7,0.1-1.4,0.1-2.1
			c0-0.7,0.5-1.3,1.2-1.4c1.2-0.2,2.5-0.4,3.7-0.5c0.7,0,1.4,0.4,1.6,1.1c0.3,0.8,0.5,1.7,0.8,2.5c0.3,0.8-0.2,1.7-1.1,2
			C-4584.5,3823.6-4584.5,3823.6-4584.6,3823.6z"/>
		<path id="Контур_104" d="M-4605.3,3757.2c0,0.6-0.2,1.1-0.7,1.4c-0.5,0.3-0.9,0.6-1.4,0.9c-0.6,0.4-1.4,0.3-1.9-0.2
			c-0.6-0.6-1.2-1.3-1.8-2c-0.6-0.6-0.5-1.6,0.1-2.2c0.1-0.1,0.1-0.1,0.2-0.2c0.7-0.5,1.4-0.9,2.1-1.3c0.8-0.4,1.7-0.1,2.1,0.6
			c0,0,0,0.1,0.1,0.1c0.3,0.7,0.7,1.4,1,2.1C-4605.4,3756.7-4605.3,3757-4605.3,3757.2z"/>
		<path id="Контур_105" d="M-4571.3,3805.1c0,0.4-0.1,0.9-0.5,1.1c-0.6,0.5-1.2,1-1.9,1.5c-0.7,0.5-1.6,0.3-2.1-0.4
			c0,0,0,0,0,0c-0.5-0.7-1-1.5-1.4-2.2c-0.4-0.6-0.3-1.5,0.3-2c0.4-0.4,0.9-0.7,1.4-1.1c0.6-0.4,1.3-0.3,1.8,0.2
			c0.7,0.6,1.4,1.3,2,2C-4571.4,3804.3-4571.3,3804.7-4571.3,3805.1z"/>
		<path id="Контур_106" d="M-4615.5,3768.5c-0.2,0.5-0.4,0.9-0.7,1.3c-0.3,0.7-1.2,1-1.9,0.8c-0.8-0.3-1.6-0.6-2.4-0.9
			c-0.8-0.3-1.2-1.2-1-2c0,0,0-0.1,0.1-0.1c0.3-0.7,0.7-1.5,1.1-2.1c0.3-0.4,0.8-0.7,1.3-0.6c0.3,0,0.7,0.1,0.9,0.3
			c0.6,0.4,1.3,0.9,1.9,1.3C-4615.4,3766.9-4615.2,3767.8-4615.5,3768.5z"/>
		<path id="Контур_107" d="M-4593.7,3752.2c0,0.4,0,0.8,0,1.2c0,0.8-0.6,1.6-1.5,1.7c-0.4,0.1-0.9,0.1-1.3,0.2
			c-0.7,0.1-1.4-0.3-1.6-1c-0.3-0.8-0.5-1.6-0.7-2.5c-0.3-0.8,0.2-1.7,1-2c0.1,0,0.2-0.1,0.4-0.1c0.7-0.1,1.3-0.2,2-0.2
			c0.9-0.1,1.7,0.5,1.8,1.4c0,0.1,0,0.1,0,0.2C-4593.7,3751.4-4593.7,3751.8-4593.7,3752.2z"/>
		<path id="Контур_108" d="M-4605.3,3805.3c0,0.3,0,0.6-0.1,0.8c-0.4,0.8-0.7,1.6-1.1,2.3c-0.4,0.8-1.3,1.1-2.1,0.7
			c0,0,0,0,0,0c-0.7-0.4-1.4-0.8-2.1-1.3c-0.6-0.5-0.7-1.4-0.2-2c0.6-0.8,1.2-1.5,1.9-2.2c0.5-0.5,1.2-0.6,1.8-0.2
			c0.5,0.3,1,0.6,1.5,1C-4605.5,3804.6-4605.3,3804.9-4605.3,3805.3z"/>
		<path id="Контур_109" d="M-4499.3,3800.5c-0.2,0-0.1-0.2-0.1-0.3h0.2C-4499.2,3800.3-4499.2,3800.5-4499.3,3800.5z"/>
	</g>
</g>
</svg>
