<?xml version="1.0" encoding="utf-8"?>
<!-- Generator: Adobe Illustrator 25.4.1, SVG Export Plug-In . SVG Version: 6.00 Build 0)  -->
<svg version="1.1" id="Layer_1" xmlns="http://www.w3.org/2000/svg" xmlns:xlink="http://www.w3.org/1999/xlink" x="0px" y="0px"
	 viewBox="0 0 260.1 52.2" style="enable-background:new 0 0 260.1 52.2;" xml:space="preserve">
<g id="Сгруппировать_58" transform="translate(-458.582 -4731.916)">
	<g id="Сгруппировать_37" transform="translate(8.289 -13.646)">
		<g id="Сгруппировать_35" transform="translate(537.264 4758.366)">
			<path id="Контур_249" d="M100.2,29.1c-0.5-2-1.3-3.9-1.9-5.8c-2.6-7.5-5.2-15-7.8-22.5C90.2,0.3,90.3,0,90.9,0
				c1.6,0,3.2,0,4.7,0c0.6,0,0.9,0.4,1.1,0.9c1.7,5.3,3.4,10.6,5.1,15.9c0.3,0.9,0.6,1.9,0.9,2.8c0.3-0.2,0.5-0.6,0.5-0.9
				c1.9-5.8,3.9-11.6,5.8-17.5c0.4-1.3,0.4-1.3,1.8-1.3c0.8,0,1.7,0,2.5,0c0.6-0.1,1.2,0.3,1.3,0.9c0.8,2.7,1.7,5.3,2.6,8
				c1.1,3.4,2.2,6.7,3.4,10.1c0.1,0.2,0.1,0.6,0.4,0.5c0.2,0,0.2-0.3,0.3-0.5c1.9-6,3.9-12,5.8-18c0.1-0.6,0.7-1.1,1.3-1
				c1.4,0,2.7,0,4.1,0c0.9,0,1,0.1,0.7,1c-1.7,4.9-3.4,9.9-5.1,14.8c-1.5,4.4-3.1,8.8-4.6,13.2h-5c-0.5-0.2-0.7-0.7-0.8-1.1
				c-1.9-5.5-3.8-11.1-5.8-16.7c-0.3,0.6-0.5,1.2-0.7,1.8c-1.7,5-3.4,10-5.2,15c-0.1,0.4-0.3,0.8-0.7,1L100.2,29.1z"/>
			<path id="Контур_250" d="M0,29.1c0-9.2,0-18.4,0-27.7C0,0,0,0,1.4,0c1.2,0,2.3,0,3.5,0C5.8,0,6,0.1,6,1.1
				c0,3.1,0,6.2,0,9.3c0,1.1,0.1,1.2,1.2,1.2c3.6,0,7.3,0,10.9,0c1.1,0,1.2-0.1,1.2-1.2c0-3.1,0-6.2,0-9.3c0-1.1,0.1-1.2,1.2-1.2
				c1.2,0,2.3,0,3.5,0c1.1,0,1.2,0.1,1.2,1.2c0,6.2,0,12.5,0,18.7c0,3.1,0,6.1,0,9.2h-5.8c-0.4-0.3-0.4-0.7-0.4-1.1
				c0-2.6,0-5.3,0-7.9c0-0.2,0-0.4,0-0.6c0-1.7-0.3-1.9-1.9-1.9c-2.9,0-5.8,0-8.8,0c-0.2,0-0.4,0-0.7,0c-0.8,0.1-1.1,0.4-1.2,1.2
				c0,0.3,0,0.7,0,1c0,2.7,0,5.4,0,8.1c0,0.4,0,0.8-0.4,1.1L0,29.1z"/>
			<path id="Контур_251" d="M138.3,29.1c0-9.2,0-18.4,0-27.7c0-1.4,0-1.4,1.4-1.4c6.3,0,12.5,0,18.8,0c1.3,0,1.3,0.1,1.3,1.3
				c0,0.9,0,1.8,0,2.8c0,1.1-0.1,1.2-1.2,1.2c-4.2,0-8.3,0-12.5,0c-0.3,0-0.6,0-0.9,0c-1,0-1.1,0.1-1.1,1.1c0,1.3,0,2.5,0,3.8
				c0,1,0.1,1.1,1.1,1.1c2.8,0,5.6,0,8.4,0c1.1,0,1.3,0.1,1.3,1.2c0,1,0,2,0,3.1c0,0.9-0.2,1.1-1.1,1.1c-2.8,0-5.6,0-8.5,0
				c-1.2,0-1.3,0.1-1.3,1.2c0,1.6,0,3.1,0,4.7c0,1.2,0.1,1.3,1.2,1.3c4.5,0,9,0,13.6,0c1.4,0,1.4,0,1.4,1.4c0,1.3,0,2.6,0,3.9
				L138.3,29.1z"/>
			<path id="Контур_252" d="M90.1,24c-3.4-7.7-6.8-15.5-10.2-23.2c-0.2-0.6-0.7-0.9-1.3-0.9c-1.1,0-2.2,0-3.3,0
				c-0.6-0.1-1.2,0.3-1.4,0.9c-2.2,4.9-4.3,9.9-6.5,14.8c-2,4.4-3.9,8.9-5.9,13.3h6.1c0.4-0.2,0.6-0.6,0.8-1c0.5-1.2,1-2.3,1.5-3.5
				c0.2-0.7,1-1.2,1.7-1.2c3.4,0,6.9,0,10.3,0c0.8-0.1,1.5,0.4,1.8,1.2c0.4,1.1,1,2.2,1.4,3.3c0.2,0.5,0.5,0.9,0.9,1.1h6.1
				C91.5,27.4,90.8,25.7,90.1,24z M72.7,17c1.3-3,2.5-5.9,3.8-8.8c0.1-0.2,0.1-0.4,0.3-0.4c0.2,0,0.3,0.3,0.3,0.4
				c1.3,2.9,2.5,5.9,3.8,8.8c0.3,0.7,0.2,0.8-0.6,0.8c-1.2,0-2.4,0-3.6,0s-2.4,0-3.6,0C72.5,17.8,72.4,17.6,72.7,17L72.7,17z"/>
			<path id="Контур_253" d="M41.5,29.1c-1.2-0.4-2.4-1-3.5-1.7c-2.1-1.5-3.5-3.8-4.1-6.3c-0.3-1.1-0.5-2.3-0.5-3.5
				c0-5.5,0-10.9,0-16.4c0-1.1,0.1-1.2,1.2-1.2c1.1,0,2.3,0,3.4,0c1.2,0,1.3,0.1,1.3,1.2c0,4.9,0,9.9,0,14.8c0,0.7,0,1.4,0.1,2.1
				c0.5,4.2,3.5,6.2,7.5,5.7c3.7-0.4,5.6-2.8,5.6-6.7c0-5.2,0-10.3,0-15.5c0-0.3,0-0.5,0-0.8c0-0.6,0.3-0.8,0.8-0.8
				c1.4,0,2.9,0,4.3,0c0.6,0,0.8,0.3,0.8,0.9c-0.1,5.9,0.3,11.7-0.2,17.6c-0.3,4.1-1.9,7.5-5.7,9.6c-0.7,0.4-1.5,0.7-2.3,1.1
				L41.5,29.1z"/>
			<path id="Контур_254" d="M167.3,29.1c0-9.2,0-18.4,0-27.7c0-1.4,0-1.4,1.4-1.4c1.2,0,2.3,0,3.5,0c0.7,0,1,0.3,1,1
				c0,2.2,0,4.3,0,6.5c0,7.2,0,14.4,0,21.6L167.3,29.1z"/>
		</g>
		<g id="Сгруппировать_36" transform="translate(450.292 4745.562)">
			<path id="Контур_245" d="M39.9,0c0.9,0.2,1.9,0.4,2.8,0.6c1.8,0.4,3.5,1.2,4.8,2.5c1.7,1.6,2.8,3.8,3,6.1
				c0.1,2.2-0.2,4.5-0.9,6.6c-0.9,2.8-2.1,5.5-3.5,8.1c-2.7,5.1-5.7,10-9,14.8C37,38.8,36.9,39,36.6,39c-0.2-0.1-0.2-0.3-0.2-0.5
				c-0.2-2.6-0.5-5.3-0.6-7.9c-0.1-2.9-0.3-5.7-0.2-8.6c0-4.6,0.4-9.2,1.3-13.8c0.4-2.3,1.1-4.6,2-6.7c0.2-0.5,0.5-1,0.8-1.5L39.9,0
				z"/>
			<path id="Контур_246" d="M29.6,0c0.5,0.8,0.9,1.7,1.2,2.6c0.8,2.3,1.4,4.7,1.8,7.1c0.4,2.6,0.7,5.2,0.8,7.9
				c0.1,2.2,0.2,4.5,0.2,6.7c0,2.4-0.1,4.7-0.3,7.1c-0.1,2.3-0.3,4.6-0.5,6.9c0,0.1,0,0.2,0,0.3c0,0.2,0,0.3-0.2,0.4
				s-0.3-0.1-0.4-0.2c-1.1-1.6-2.2-3.3-3.2-4.9c-2.3-3.6-4.5-7.4-6.4-11.3c-1.3-2.4-2.3-5-3.1-7.6c-0.5-1.6-0.7-3.2-0.7-4.8
				c0-4.6,3.3-8.6,7.7-9.5c0.9-0.2,1.9-0.4,2.8-0.6L29.6,0z"/>
			<path id="Контур_247" d="M0,29.9c0.1-0.5,0.1-1,0.2-1.5c0.1-0.4,0.2-0.7,0.3-1.1s0.1-0.4,0.5-0.2c1.4,0.8,2.9,1.6,4.3,2.4
				c5.6,3.1,11.1,6.2,16.6,9.5c2,1.2,4,2.4,5.9,3.7c0.2,0.1,0.4,0.2,0.3,0.4s-0.3,0.2-0.5,0.2c-5,0.1-10,0.1-15,0
				c-2.9,0-5.7-1-7.9-2.8c-2.7-2.1-4.3-5.2-4.6-8.6c0-0.1,0-0.2-0.1-0.3L0,29.9z"/>
			<path id="Контур_248" d="M69.1,32.7c-0.1,0.4-0.2,0.8-0.3,1.2c-1.1,4.5-4.6,7.9-9,9c-1,0.3-2.1,0.4-3.2,0.4
				c-5,0-9.9,0-14.9,0c-0.1,0-0.3,0-0.4,0c-0.1,0-0.2-0.1-0.2-0.2c0-0.1,0-0.2,0.1-0.3c0.1-0.1,0.2-0.2,0.4-0.3
				c3.7-2.5,7.6-4.8,11.5-7c5-2.9,10.1-5.7,15.2-8.5c0.4-0.2,0.4-0.2,0.5,0.2c0.1,0.5,0.2,1,0.4,1.5L69.1,32.7z"/>
			<path id="Контур_255" d="M64.3,19.8c0.1,2.5-0.9,5-2.6,6.9c-1.6,1.7-3.5,3.2-5.4,4.5c-3.9,2.6-7.9,5.1-12.1,7.2
				c-1.3,0.7-2.7,1.4-4.1,2.1c-0.2,0.1-0.4,0.3-0.6,0.1c-0.2-0.2,0-0.4,0.1-0.6c3.1-6.7,6.7-13.1,10.8-19.3c2.5-3.9,5.2-7.6,8-11.2
				c0.3-0.4,0.3-0.4,0.6,0c1.9,1.9,3.5,4.2,4.5,6.7C63.9,17.4,64.2,18.6,64.3,19.8z"/>
			<path id="Контур_256" d="M29.9,40.5c0,0.2-0.1,0.3-0.3,0.3c-0.1,0-0.2-0.1-0.3-0.1c-5.2-2.5-10.2-5.4-15-8.5
				c-2.2-1.4-4.3-3-6.2-4.9C6,25.3,4.9,22.6,5,19.7c0.1-1.5,0.5-3.1,1.2-4.4c0.9-1.8,2.1-3.5,3.5-5.1c0.2-0.2,0.4-0.5,0.7-0.7
				c0.3-0.3,0.3-0.3,0.5,0c0.9,1.1,1.8,2.3,2.6,3.4c3.3,4.5,6.5,9.2,9.3,14.1c2.5,4.2,4.8,8.6,6.9,13.1
				C29.8,40.3,29.8,40.4,29.9,40.5z"/>
			<path id="Контур_257" d="M42.3,44.9c2.4,0.1,4.9,0.2,7.3,0.3c1.3,0,2.6,0.1,3.9,0.1c2.6,0.1,5.2,0.2,7.8,0.3
				c0.5,0,0.9,0,1.4,0c0.2,0,0.3,0.1,0.2,0.3c-1.1,2-2.7,3.7-4.5,4.9c-1.3,0.8-2.7,1.3-4.2,1.3c-0.9,0-1.7-0.2-2.5-0.6
				c-1.9-0.9-3.8-1.9-5.5-3.1c-1.5-0.9-2.9-1.9-4.3-2.9c-0.1-0.1-0.1-0.1-0.2-0.2c-0.1-0.1-0.1-0.2-0.1-0.3c0-0.1,0.1-0.2,0.2-0.2
				C41.9,44.9,42.1,44.9,42.3,44.9L42.3,44.9z"/>
			<path id="Контур_258" d="M15.1,52.1c-1.8,0-3.5-0.6-4.8-1.8c-1.6-1.2-2.8-2.7-3.8-4.4c-0.2-0.3-0.1-0.3,0.2-0.4
				c1.2,0,2.4-0.1,3.5-0.1l7.7-0.3c1.2,0,2.5-0.1,3.7-0.1l5.5-0.2c0.1,0,0.2,0,0.3,0s0.3,0,0.3,0.2c0,0.1,0,0.3-0.1,0.3
				c-0.3,0.3-0.7,0.5-1,0.7c-2.4,1.7-4.9,3.3-7.4,4.7c-1,0.6-2.1,1-3.3,1.2C15.6,52.1,15.3,52.1,15.1,52.1z"/>
		</g>
	</g>
</g>
</svg>
