<?xml version="1.0" encoding="utf-8"?>
<!-- Generator: Adobe Illustrator 25.4.1, SVG Export Plug-In . SVG Version: 6.00 Build 0)  -->
<svg version="1.1" id="Layer_1" xmlns="http://www.w3.org/2000/svg" xmlns:xlink="http://www.w3.org/1999/xlink" x="0px" y="0px"
	 viewBox="0 0 245.6 53" style="enable-background:new 0 0 245.6 53;" xml:space="preserve">
<g id="Сгруппировать_61" transform="translate(-1209 -4526.23)">
	<g id="Сгруппировать_33" transform="translate(3008.908 2038.39)">
		<path id="Контур_213" d="M-1673.1,2514.2c0-5,0-10,0-15.1c0-1.6,0.1-1.7,1.7-1.6c3.5,0.1,6.9-0.3,10.4,0.4
			c4.5,0.8,7.8,3.1,9,7.7c1.2,4.6,0.1,8.7-3.7,11.9c-0.7,0.5-0.6,0.9-0.2,1.5c2.6,3.6,5.1,7.2,7.6,10.9c0.2,0.3,0.6,0.5,0.4,0.9
			c-0.2,0.4-0.6,0.2-0.9,0.2c-1.7,0-3.5,0-5.2,0c-0.6,0-1.2-0.3-1.5-0.8c-3.5-5-6.9-9.9-10.4-14.9c-0.5-0.8-0.5-1,0.5-1.1
			c1.6-0.1,3.2-0.5,4.7-1.1c2-0.9,3.1-3.1,2.6-5.2c-0.2-1.5-1.3-2.8-2.7-3.3c-1.7-0.6-3.5-0.8-5.2-0.6c-0.6,0-0.9,0.4-0.9,0.9
			c0,0.4,0,0.8,0,1.1c0,7.8,0,15.6,0,23.4c0,1.5,0,1.6-1.6,1.6c-0.9,0-1.8,0-2.7,0c-2,0-2,0-2-2
			C-1673.1,2524-1673.1,2519.1-1673.1,2514.2z"/>
		<path id="Контур_214" d="M-1716.4,2530.6c0,0.1,0,0.2-0.1,0.3C-1716.5,2530.8-1716.4,2530.7-1716.4,2530.6z"/>
		<path id="Контур_215" d="M-1703.1,2514.9c-1.9,2.8-4.9,4.6-8.2,5.2c-0.4,0.1-0.9,0-1.2-0.4c-1-1.5-2-2.9-3-4.4
			c-0.6-0.9-0.5-1,0.5-1.2c0.3,0,0.6,0,0.9-0.1c1.7-0.1,3.3-0.7,4.6-1.6c1.4-1,2.1-2.8,1.8-4.5c-0.2-1.7-1.4-3.1-3.1-3.6
			c-1-0.3-2.1-0.5-3.2-0.5c-2.9,0-2.6-0.2-2.6,2.5c0,8.2,0,16.3,0,24.5c-1.6,0-3.2,0-4.8,0c-1.4,0-1.5-0.1-1.5-1.5
			c0-9.2,0-18.4,0-27.6c0-1.1,0-2.2,0-3.3c0-0.6,0.3-1,0.9-1c3.8,0.1,7.6-0.3,11.3,0.4C-1702.4,2499.4-1698.5,2508.1-1703.1,2514.9z
			"/>
		<path id="Контур_216" d="M-1697.8,2514.2c0-5.1,0-10.1,0-15.2c0-1.5,0.1-1.6,1.5-1.6c5.6,0,11.2,0,16.8,0
			c1.4,0,1.5,0.1,1.5,1.5c0,1,0,2.1,0,3.1c0,1.7,0,1.8-1.7,1.8c-3.4,0-6.8,0-10.2,0c-1.5,0-1.6,0.1-1.6,1.6c0,5.9,0,11.7,0,17.6
			c0,1.5,0.1,1.6,1.6,1.6c3.5,0,6.9,0,10.4,0c1.4,0,1.5,0.1,1.5,1.5c0,1.2,0,2.5,0,3.7c0,0.7-0.3,1.1-1.1,1.1c-5.9,0-11.9,0-17.8,0
			c-1,0-1-0.6-1-1.3C-1697.8,2524.5-1697.8,2519.3-1697.8,2514.2z"/>
		<path id="Контур_217" d="M-1744.8,2530.9c-3.8-0.1-2.8,0.6-4.3-2.7c-2.7-5.7-5.3-11.4-8-17c-0.2-0.3-0.2-0.9-0.6-0.9
			c-0.4,0-0.5,0.6-0.6,0.9c-2.9,6.1-5.7,12.2-8.6,18.4c-0.3,1-1.2,1.5-2.2,1.4c-1.2-0.1-2.4,0-3.5,0c-1.2,0-1.2-0.1-0.8-1.2
			c2.3-4.9,4.6-9.9,6.9-14.8c2.7-5.8,5.4-11.6,8.1-17.4c0.2-0.3,0.2-0.9,0.6-0.9s0.5,0.5,0.6,0.9c5,10.7,10,21.3,14.9,32
			c0.6,1.3,0.6,1.3-0.9,1.3C-1743.6,2530.9-1744.2,2530.9-1744.8,2530.9z"/>
		<path id="Контур_218" d="M-1639.9,2487.9c0.2,0.1,0.4,0.2,0.6,0.3c1.1,0.9,2.1,1.8,3.3,2.6c0.6,0.5,0.6,0.9,0.1,1.4
			c-1.6,1.7-2.9,3.8-3.8,6c-1.5,3.8-0.9,8.1,1.4,11.4c1,1.4,1.9,2.9,2.7,4.4c3.5,6.9,3,13.6-1.6,19.9c-1.9,2.5-4.1,4.7-6.5,6.6
			c-0.6,0.5-0.9,0.4-1.2-0.3c-0.6-1.3-1.1-2.5-1.7-3.8c-0.4-0.6-0.2-1.3,0.4-1.7c0,0,0,0,0,0c1.7-1.4,3.2-3,4.5-4.8
			c2.4-3.1,3-7.2,1.5-10.8c-0.8-2.2-1.9-4.3-3.2-6.3c-4.3-6.2-4.2-12.5-0.9-19c1-2,2.3-3.8,3.7-5.5
			C-1640.5,2488.1-1640.3,2487.9-1639.9,2487.9z"/>
		<path id="Контур_219" d="M-1734.7,2487.8c0.2,0.1,0.4,0.3,0.6,0.4c1,0.8,2,1.7,3.1,2.5c0.7,0.5,0.7,0.9,0.1,1.5
			c-1.4,1.5-2.5,3.1-3.3,5c-2,4.1-1.6,9,1.1,12.7c1.2,1.7,2.3,3.5,3.1,5.4c2.8,5.9,2.1,12.9-1.8,18.1c-1.9,2.7-4.2,5.1-6.8,7.1
			c-0.7,0.5-1,0.5-1.4-0.3c-0.5-1.3-1.1-2.5-1.7-3.8c-0.3-0.5-0.2-1.2,0.3-1.5c0,0,0,0,0,0c1.4-1.2,2.7-2.5,3.9-4
			c3.1-3.5,3.8-8.4,1.8-12.6c-0.9-2-1.9-4-3.2-5.8c-3.7-5.5-3.9-11.2-1.3-17.1c1.1-2.5,2.6-4.8,4.4-6.9
			C-1735.4,2488.2-1735.2,2487.9-1734.7,2487.8z"/>
		<path id="Контур_220" d="M-1606.2,2530.9c-2.7,0.7-4.1-0.7-5.5-2.8c-2.9-4.4-6-8.7-9-12.9c-0.5-0.5-0.5-1.4,0-1.9
			c3.5-4.9,6.9-9.8,10.3-14.7c0.4-0.7,1.2-1.1,2.1-1.1c1.6,0.1,3.3,0,4.9,0c0.3,0,0.7-0.1,0.8,0.2c0.2,0.3-0.2,0.6-0.3,0.8
			c-3.4,4.9-6.8,9.7-10.2,14.5c-0.6,0.6-0.6,1.6,0,2.3c3.4,4.8,6.8,9.6,10.1,14.5c0.2,0.3,0.6,0.5,0.4,0.9c-0.2,0.4-0.6,0.2-0.9,0.2
			C-1604.5,2530.9-1605.4,2530.9-1606.2,2530.9z"/>
		<path id="Контур_221" d="M-1793.1,2513.9c2.5-3.6,5-7.2,7.5-10.8c1.1-1.6,2.3-3.2,3.4-4.9c0.3-0.5,0.9-0.8,1.6-0.8
			c1.7,0,3.3,0,5,0c0.4,0,0.8-0.2,1,0.3c0.2,0.3-0.2,0.6-0.4,0.9c-3.3,4.8-6.6,9.5-10,14.3c-0.7,0.7-0.7,1.8,0,2.5
			c3.4,4.7,6.7,9.5,10,14.2c0.2,0.3,0.7,0.6,0.5,1.1c-0.2,0.4-0.7,0.2-1.1,0.2c-1.7,0-3.3,0-5,0c-0.5,0.1-1-0.1-1.4-0.6
			c-3.4-4.9-6.8-9.7-10.1-14.6C-1792.5,2515.1-1792.8,2514.5-1793.1,2513.9z"/>
		<path id="Контур_222" d="M-1598.8,2497.5c2.4-0.7,3.5,0.7,4.6,2.6c1.7,3.3,3.7,6.4,5.5,9.6c0.6,1,0.7,1,1.3,0
			c2-3.5,4.1-7,6.1-10.6c0.5-1.2,1.7-1.9,3-1.7c1,0.1,2,0,3,0c1.2,0,1.3,0.2,0.7,1.2c-3.3,5.6-6.5,11.3-9.8,16.9
			c-1,1.8-2.1,3.5-3.1,5.3c-0.4,0.7-0.7,0.7-1.1,0c-4.3-7.4-8.6-14.9-12.9-22.3c-0.5-0.9-0.4-1.1,0.6-1.1
			C-1600.2,2497.5-1599.5,2497.5-1598.8,2497.5z"/>
		<path id="Контур_223" d="M-1793.1,2513.9c0.7,0.4,1,1.2,0.9,1.9c-0.4-0.3-0.6-1.3-1.1-1.1c-0.6,0.2-0.3,1-0.3,1.6
			c0,4.4,0,8.7,0,13.1c0,1.4-0.1,1.5-1.5,1.5c-1.1,0-2.2,0-3.3,0c-1.4,0-1.4-0.1-1.4-1.5c0-5.6,0-11.3,0-16.9c0-4.5,0-9,0-13.5
			c0-1.4,0.1-1.5,1.5-1.5c1.1,0,2.3,0,3.4,0c1,0,1.3,0.4,1.3,1.4c0,4.6,0,9.3,0,13.9C-1793.6,2513.1-1793.9,2513.8-1793.1,2513.9z"
			/>
		<path id="Контур_224" d="M-1621.7,2514.2c0,5.1,0,10.1,0,15.2c0,1.5-0.1,1.6-1.6,1.6c-1.1,0-2.2,0-3.3,0
			c-1,0.1-1.4-0.3-1.4-1.4c0.1-1.7,0-3.4,0-5.1c0-8.4,0-16.9,0-25.3c0-1.6,0.1-1.6,1.6-1.7c1,0,2.1,0,3.1,0c1.5,0,1.5,0.1,1.5,1.5
			C-1621.7,2504.1-1621.7,2509.1-1621.7,2514.2z"/>
		<path id="Контур_225" d="M-1558.5,2497.8c-3.3-0.9-6.4,0.3-7.6,3c-0.7,1.5-0.7,3.2,0,4.6c0.5,1,0.4,1.1-0.7,1.1
			c-1.6,0-3.1,0-4.7,0c-0.8,0-1.2,0.3-1.1,1.1c0,0.2,0,0.5,0,0.7c0,1.4,0.1,1.6,1.5,1.6c2.5,0,5,0,7.5,0c2.5,0,5,0,7.5,0
			c0.1,0,0.1,0,0.2,0c0.9,0.1,1.3-0.3,1.2-1.2c0-0.8-0.2-1.7-0.4-2.4c-0.2-0.6,0.7-1.5,0.8-2.4
			C-1553.9,2501.1-1555.7,2498.5-1558.5,2497.8z M-1560.5,2506.6c-1.5,0-2.8-1.2-2.8-2.8c0,0,0,0,0-0.1c0.1-1.6,1.4-2.8,3-2.7
			c1.6,0,2.8,1.3,2.8,2.9c0,1.5-1.3,2.7-2.9,2.7C-1560.4,2506.6-1560.5,2506.6-1560.5,2506.6L-1560.5,2506.6z"/>
		<path id="Контур_226" d="M-1555.2,2516.4c-0.1-0.2-0.4-0.4-0.1-0.5c0.9-0.5,0.5-1.4,0.6-2.1c0.1-1-0.3-1.4-1.3-1.4
			c-1.5,0-2.9,0-4.4,0c-1.5,0-3,0-4.6,0c-0.4-0.1-0.8,0.1-1,0.3c-0.3,0.4-0.3,2.6,0.2,3c0.5,0.3,0.3,0.5,0.1,0.8
			c-1.6,2.5-0.8,5.9,1.7,7.5c0,0,0,0,0,0c1.7,1,3.8,1.3,5.7,0.6c2.9-0.8,4.6-3.8,3.8-6.7
			C-1554.6,2517.4-1554.9,2516.9-1555.2,2516.4z M-1560.4,2521.5c-1.6,0.1-2.9-1.1-3-2.7c-0.1-1.6,1.1-2.9,2.7-3c0,0,0.1,0,0.1,0
			c1.6,0,2.9,1.2,3,2.8C-1557.6,2520.2-1558.8,2521.5-1560.4,2521.5L-1560.4,2521.5z"/>
		<path id="Контур_227" d="M-1563.6,2527.4c2.5,0,5,0,7.5,0c1.2,0,1.4,0.2,1.4,1.4c0,2.1,0,2.1-2.1,2.1c-4.8,0-9.6,0-14.3,0
			c-1.4,0-1.5-0.1-1.5-1.5c0-0.2,0-0.5,0-0.7c-0.1-0.9,0.3-1.3,1.3-1.3C-1568.8,2527.4-1566.2,2527.4-1563.6,2527.4z"/>
		<path id="Контур_228" d="M-1682.4,2514.2c0,1.1,0,2.3,0,3.4c0,0.7-0.3,0.9-0.9,0.6c-2.3-1.2-4.7-2.4-7.1-3.5
			c-0.6-0.3-0.7-0.6,0-1c2.4-1.2,4.7-2.3,7.1-3.5c0.7-0.4,0.9-0.1,0.9,0.6C-1682.4,2511.9-1682.4,2513.1-1682.4,2514.2z"/>
		<path id="Контур_229" d="M-1757.6,2519.7c1.1,0,2.2,0,3.3,0c0.8,0,0.9,0.3,0.6,1c-1.2,2.3-2.3,4.6-3.5,7
			c-0.4,0.8-0.7,0.6-1,0c-1.1-2.3-2.3-4.6-3.4-6.9c-0.4-0.8-0.1-1,0.7-1C-1759.8,2519.7-1758.7,2519.7-1757.6,2519.7L-1757.6,2519.7
			z"/>
		<path id="Контур_230" d="M-1588.1,2530.9c-1.1,0-2.2,0-3.3,0c-0.7,0-0.9-0.3-0.6-1c1.2-2.3,2.3-4.6,3.5-6.9
			c0.3-0.6,0.6-0.7,1,0c1.2,2.3,2.3,4.7,3.5,7c0.4,0.7,0.1,0.9-0.6,0.9C-1585.8,2530.9-1587,2530.9-1588.1,2530.9L-1588.1,2530.9z"
			/>
	</g>
</g>
</svg>
