<svg xmlns="http://www.w3.org/2000/svg" width="231.79" height="37.83" viewBox="0 0 231.79 37.83">
  <g id="Сгруппировать_62" data-name="Сгруппировать 62" transform="translate(-1212.922 -4739.085)">
    <g id="Сгруппировать_38" data-name="Сгруппировать 38" transform="translate(4915.924 1521.935)">
      <path id="Контур_259" data-name="Контур 259" d="M-3681.693,3244.325c-3.232-4.576-6.458-9.154-9.737-13.7a1.222,1.222,0,0,1,.107-1.855c2.053-2.291,4.04-4.642,6.05-6.971,1.093-1.27,2.175-2.545,3.491-4.084-1.623,0-2.9.061-4.156-.02a2.457,2.457,0,0,0-2.238.988c-3.174,3.751-6.4,7.46-9.621,11.169-.243.276-.373.761-1,.709v-9.907c0-2.978,0-2.92-2.942-2.967-1.093-.02-1.278.361-1.267,1.341.05,4.41.022,8.821.022,13.23,0,4.134.019,8.268-.014,12.4-.008.817.2,1.1,1.065,1.115,3.135.044,3.135.08,3.135-3.047a4.843,4.843,0,0,0-.009-.825,8.227,8.227,0,0,1,2.953-7.915c.831-.759,1.029-.577,1.548.169,2.5,3.576,5.036,7.123,7.57,10.674.279.389.447.925,1.09.919,1.543-.011,3.085,0,4.656,0A2.276,2.276,0,0,0-3681.693,3244.325Zm10.9-17.392a9.694,9.694,0,0,0-9.689,9.734,9.691,9.691,0,0,0,9.64,9.643,9.7,9.7,0,0,0,9.761-9.656A9.707,9.707,0,0,0-3670.8,3226.933Zm.077,15.143a5.43,5.43,0,0,1-5.536-5.45,5.492,5.492,0,0,1,5.4-5.478,5.5,5.5,0,0,1,5.541,5.475A5.434,5.434,0,0,1-3670.721,3242.076Zm17.453-10.269V3220.5c0-2.8,0-2.751-2.823-2.807-1.068-.019-1.394.254-1.388,1.361.05,7.951.028,15.9.028,23.853,0,2.881,0,2.817,2.878,2.881,1.176.028,1.336-.436,1.325-1.435C-3653.292,3240.169-3653.268,3235.988-3653.268,3231.807Zm12.532,8.93c2.815-2.84,5.616-5.693,8.494-8.467.759-.729.7-1.192.063-1.9-1.948-2.163-4.333-3.353-5.834-3.384-5.591-.171-9.455,2.548-10.788,6.541a9.719,9.719,0,0,0,3.587,11,9.676,9.676,0,0,0,11.561-.268c1.821-1.421,1.821-1.421.248-2.994a10.479,10.479,0,0,1-.775-.784c-.51-.632-.891-.814-1.554-.052a4.969,4.969,0,0,1-4.487,1.609c-.392-.044-.941.058-1.126-.353C-3641.558,3241.212-3641,3241-3640.736,3240.738Zm-4-2.354a5.206,5.206,0,0,1,1.438-5.79,5,5,0,0,1,5.426-1.06Q-3641.247,3234.9-3644.732,3238.384Zm30.551,1.529c-.149-2.542-1.515-4.051-4.468-4.876-1.454-.406-2.942-.712-4.4-1.126-.684-.193-1.322-.591-1.217-1.44.1-.8.756-1.121,1.468-1.245a6.953,6.953,0,0,1,3.251.334c.737.221,1.206,1.289,2,.895a8.348,8.348,0,0,0,1.794-1.692c.133-.127.249-.273.392-.387.588-.455.373-.786-.11-1.175a9.386,9.386,0,0,0-6.08-2.241,8.08,8.08,0,0,0-4.344,1.084,5.378,5.378,0,0,0-2.58,5.4,4.618,4.618,0,0,0,3.281,4.032,18.423,18.423,0,0,0,2.1.657c1.065.284,2.15.491,3.2.809.761.231,1.523.6,1.446,1.584-.08,1.024-.877,1.3-1.73,1.471a6.328,6.328,0,0,1-4.49-.858c-.654-.367-1.09-1.4-1.816-1.173-.665.2-1.14,1.018-1.7,1.567-.2.19-.373.408-.588.579-.488.389-.356.7.011,1.12a9.722,9.722,0,0,0,10.755,2.349A5.827,5.827,0,0,0-3614.182,3239.913Zm21.987-9.833c0-2.528,0-2.475-2.533-2.547-1.181-.034-2.034.063-1.664,1.755-4.675-3.232-9.032-2.945-12.5.629a9.66,9.66,0,0,0-.778,12.5,9.627,9.627,0,0,0,6.2,3.756c2.688.486,4.912-.439,7.1-2.363-.419,1.844.419,2.12,1.684,1.951a4.116,4.116,0,0,1,1.1,0c1.063.149,1.418-.243,1.4-1.35C-3592.228,3239.637-3592.195,3234.86-3592.195,3230.08Zm-9.77,12a5.432,5.432,0,0,1-5.4-5.589,5.486,5.486,0,0,1,5.53-5.34,5.494,5.494,0,0,1,5.406,5.608A5.438,5.438,0,0,1-3601.964,3242.076Zm49.607-10.026c.016-.811-.3-1.026-1.043-1.013-1.932.033-3.861.011-5.793.011a1.35,1.35,0,0,0-1.035.276l-3.684,3.634c.074.108.146.213.218.32,2.02,0,4.04-.009,6.057.006.34,0,.74-.133.969.3a5.123,5.123,0,0,1-.856,4.184,10.421,10.421,0,0,1-13.214-.089,10.326,10.326,0,0,1-2.136-13.459,10.455,10.455,0,0,1,12.667-4.154c.825.329,1.565,1.342,2.415.969.828-.362,1.374-1.322,2.106-1.946.7-.59.613-.938-.127-1.418a14.776,14.776,0,0,0-10.771-2.313,14.611,14.611,0,0,0-11.941,12.278,14.607,14.607,0,0,0,8.72,15.523,14.706,14.706,0,0,0,16.81-3.932,2.154,2.154,0,0,0,.635-1.465C-3552.388,3237.194-3552.4,3234.622-3552.358,3232.05Zm15.206-3.088a7.956,7.956,0,0,1,.008-.96c.135-.9-.345-1.093-1.107-1.066a8.1,8.1,0,0,0-5.622,2.644c.5-2.056-.477-2.18-1.728-2.031a5.146,5.146,0,0,1-1.236,0c-.933-.122-1.145.3-1.14,1.167.039,4.678.02,9.358.02,14.036,0,3.061,0,3.016,3,3.033,1,.006,1.22-.331,1.2-1.258-.055-2.614-.052-5.23-.008-7.844a5.558,5.558,0,0,1,4.669-5.495c.621-.1,1.485.314,1.8-.213S-3537.174,3229.646-3537.152,3228.962Zm11.842-2.031a9.66,9.66,0,0,0-9.634,9.764,9.636,9.636,0,0,0,9.778,9.615,9.675,9.675,0,0,0,9.582-9.689A9.681,9.681,0,0,0-3525.31,3226.93Zm.016,15.146a5.477,5.477,0,0,1-5.464-5.406,5.518,5.518,0,0,1,5.509-5.522,5.537,5.537,0,0,1,5.478,5.431A5.5,5.5,0,0,1-3525.293,3242.076Zm30.222-11.583c0-3.016,0-2.978-3.085-2.961-.913.005-1.178.279-1.165,1.173.047,2.942.03,5.884.014,8.823a4.411,4.411,0,0,1-4.3,4.623,4.449,4.449,0,0,1-4.424-4.515c-.042-2.343-.011-4.686-.011-7.029,0-3.218,0-3.187-3.249-3.072-.806.027-1,.311-1,1.06.03,3.491-.047,6.985.028,10.476a7.354,7.354,0,0,0,9.507,6.938,10.413,10.413,0,0,0,3.455-2.092c-.386,1.935.671,1.973,1.879,1.846a3.926,3.926,0,0,1,.963,0c1.065.155,1.418-.243,1.4-1.347C-3495.1,3239.775-3495.071,3235.136-3495.071,3230.494Zm21.247-.494c-3.386-3.656-8.188-3.988-12.6-.64.447-1.874-.563-1.912-1.714-1.807a4.591,4.591,0,0,1-1.1-.006c-1.129-.18-1.352.334-1.347,1.377.039,7.667.019,15.333.019,23,0,3.116,0,3.069,3.107,3.058.985-.006,1.1-.4,1.093-1.217-.036-2.846-.022-5.691,0-8.539,0-.373-.193-.812.188-1.137,4.247,3.182,9.016,2.815,12.438-.944A9.681,9.681,0,0,0-3473.824,3230Zm-7.123,12.077a5.444,5.444,0,0,1-5.434-5.561,5.492,5.492,0,0,1,5.511-5.368,5.584,5.584,0,0,1,5.475,5.445A5.512,5.512,0,0,1-3480.947,3242.076Z" fill="#fff"/>
      <path id="Контур_260" data-name="Контур 260" d="M-3226.126,3239.766a2.156,2.156,0,0,1-.635,1.465,14.706,14.706,0,0,1-16.81,3.932,14.607,14.607,0,0,1-8.721-15.523,14.612,14.612,0,0,1,11.942-12.278,14.776,14.776,0,0,1,10.771,2.313c.739.48.822.828.127,1.418-.731.624-1.278,1.584-2.106,1.946-.85.373-1.59-.64-2.415-.969a10.455,10.455,0,0,0-12.667,4.154,10.327,10.327,0,0,0,2.136,13.459,10.421,10.421,0,0,0,13.214.089,5.124,5.124,0,0,0,.855-4.184c-.229-.436-.629-.3-.969-.3-2.018-.014-4.038-.006-6.058-.006-.072-.108-.144-.213-.218-.32l3.684-3.634a1.35,1.35,0,0,1,1.035-.276c1.932,0,3.861.022,5.793-.011.748-.014,1.06.2,1.043,1.013C-3226.167,3234.622-3226.154,3237.194-3226.126,3239.766Z" transform="translate(-326.235)" fill="#fff"/>
      <path id="Контур_261" data-name="Контур 261" d="M-3680.984,3247.169c-1.571,0-3.113-.009-4.656,0-.643.006-.811-.53-1.09-.919-2.534-3.552-5.073-7.1-7.57-10.675-.519-.745-.718-.927-1.548-.168a8.227,8.227,0,0,0-2.953,7.915,4.843,4.843,0,0,1,.009.825c0,3.127,0,3.091-3.135,3.047-.869-.014-1.073-.3-1.065-1.115.033-4.134.014-8.268.014-12.4,0-4.41.028-8.82-.022-13.23-.011-.98.174-1.36,1.267-1.341,2.939.047,2.942-.011,2.942,2.967v9.907c.624.052.753-.433,1-.709,3.223-3.709,6.447-7.418,9.621-11.169a2.457,2.457,0,0,1,2.238-.988c1.261.08,2.534.019,4.156.019-1.316,1.54-2.4,2.815-3.491,4.085-2.009,2.329-4,4.68-6.05,6.971a1.221,1.221,0,0,0-.107,1.854c3.279,4.543,6.5,9.121,9.737,13.7A2.277,2.277,0,0,1-3680.984,3247.169Z" transform="translate(0 -1.417)" fill="#fff"/>
      <path id="Контур_262" data-name="Контур 262" d="M-2916.548,3255.946c-3.386-3.657-8.188-3.988-12.6-.64.447-1.874-.563-1.912-1.714-1.808a4.566,4.566,0,0,1-1.1-.005c-1.129-.18-1.353.334-1.347,1.377.039,7.667.019,15.333.019,23,0,3.116,0,3.069,3.107,3.058.985-.005,1.1-.4,1.093-1.217-.036-2.845-.022-5.69,0-8.539,0-.373-.193-.812.188-1.137,4.247,3.182,9.016,2.815,12.438-.944A9.681,9.681,0,0,0-2916.548,3255.946Zm-7.123,12.077a5.445,5.445,0,0,1-5.434-5.561,5.493,5.493,0,0,1,5.511-5.368,5.583,5.583,0,0,1,5.475,5.445A5.512,5.512,0,0,1-2923.671,3268.023Z" transform="translate(-557.276 -25.947)" fill="#fff"/>
      <path id="Контур_263" data-name="Контур 263" d="M-3352.4,3256.022c0-2.528,0-2.476-2.533-2.548-1.181-.033-2.034.064-1.665,1.755-4.675-3.232-9.032-2.945-12.5.629a9.659,9.659,0,0,0-.778,12.5,9.626,9.626,0,0,0,6.2,3.756c2.688.486,4.913-.439,7.1-2.362-.42,1.843.42,2.119,1.683,1.951a4.109,4.109,0,0,1,1.1,0c1.062.149,1.418-.243,1.4-1.349C-3352.428,3265.579-3352.4,3260.8-3352.4,3256.022Zm-9.77,12a5.433,5.433,0,0,1-5.4-5.588,5.487,5.487,0,0,1,5.531-5.34,5.494,5.494,0,0,1,5.406,5.608A5.438,5.438,0,0,1-3362.165,3268.018Z" transform="translate(-239.799 -25.942)" fill="#fff"/>
      <path id="Контур_264" data-name="Контур 264" d="M-3499.847,3266.529c2.815-2.84,5.616-5.694,8.495-8.468.759-.728.7-1.192.063-1.9-1.948-2.164-4.333-3.353-5.834-3.384-5.591-.171-9.455,2.547-10.788,6.541a9.72,9.72,0,0,0,3.588,11,9.676,9.676,0,0,0,11.56-.268c1.822-1.421,1.822-1.421.249-2.995a10.34,10.34,0,0,1-.776-.783c-.511-.632-.891-.814-1.554-.052a4.97,4.97,0,0,1-4.487,1.609c-.392-.044-.941.058-1.126-.353C-3500.669,3267-3500.112,3266.794-3499.847,3266.529Zm-4-2.354a5.206,5.206,0,0,1,1.438-5.79,5,5,0,0,1,5.426-1.06Q-3500.357,3260.695-3503.843,3264.175Z" transform="translate(-140.889 -25.791)" fill="#fff"/>
      <path id="Контур_265" data-name="Контур 265" d="M-3611.731,3252.6a9.694,9.694,0,0,0-9.689,9.734,9.691,9.691,0,0,0,9.64,9.643,9.7,9.7,0,0,0,9.761-9.656A9.707,9.707,0,0,0-3611.731,3252.6Zm.077,15.143a5.431,5.431,0,0,1-5.536-5.45,5.493,5.493,0,0,1,5.4-5.478,5.5,5.5,0,0,1,5.542,5.475A5.435,5.435,0,0,1-3611.654,3267.743Z" transform="translate(-59.067 -25.667)" fill="#fff"/>
      <path id="Контур_266" data-name="Контур 266" d="M-3084.406,3252.59a9.659,9.659,0,0,0-9.634,9.763,9.636,9.636,0,0,0,9.778,9.615,9.674,9.674,0,0,0,9.582-9.689A9.68,9.68,0,0,0-3084.406,3252.59Zm.017,15.145a5.477,5.477,0,0,1-5.464-5.406,5.518,5.518,0,0,1,5.508-5.522,5.537,5.537,0,0,1,5.478,5.431A5.5,5.5,0,0,1-3084.389,3267.735Z" transform="translate(-440.904 -25.659)" fill="#fff"/>
      <path id="Контур_267" data-name="Контур 267" d="M-2994.708,3271.566c.014,1.1-.34,1.5-1.405,1.347a3.851,3.851,0,0,0-.963,0c-1.209.127-2.266.088-1.879-1.846a10.406,10.406,0,0,1-3.455,2.092,7.353,7.353,0,0,1-9.507-6.938c-.075-3.491,0-6.985-.027-10.476-.006-.748.19-1.032,1-1.06,3.248-.116,3.248-.146,3.248,3.071,0,2.344-.03,4.686.011,7.029a4.449,4.449,0,0,0,4.424,4.515,4.411,4.411,0,0,0,4.3-4.622c.016-2.939.033-5.881-.014-8.823-.014-.894.251-1.167,1.165-1.173,3.085-.016,3.085-.055,3.085,2.961C-2994.733,3262.285-2994.766,3266.924-2994.708,3271.566Z" transform="translate(-500.338 -27.15)" fill="#fff"/>
      <path id="Контур_268" data-name="Контур 268" d="M-3424.077,3271.312a9.722,9.722,0,0,1-10.755-2.349c-.367-.419-.5-.731-.011-1.12.215-.171.392-.39.588-.58.557-.549,1.032-1.363,1.7-1.567.726-.224,1.162.806,1.816,1.173a6.33,6.33,0,0,0,4.49.858c.853-.174,1.65-.447,1.73-1.471.077-.988-.685-1.352-1.446-1.584-1.051-.318-2.136-.525-3.2-.809a18.564,18.564,0,0,1-2.1-.657,4.619,4.619,0,0,1-3.281-4.032,5.377,5.377,0,0,1,2.581-5.4,8.077,8.077,0,0,1,4.344-1.084,9.381,9.381,0,0,1,6.08,2.24c.483.39.7.72.11,1.176-.144.113-.259.259-.392.386a8.348,8.348,0,0,1-1.794,1.692c-.795.395-1.264-.673-2-.894a6.961,6.961,0,0,0-3.251-.334c-.712.125-1.366.445-1.468,1.245-.1.85.532,1.248,1.217,1.44,1.455.414,2.942.72,4.4,1.126,2.953.825,4.319,2.334,4.468,4.876A5.827,5.827,0,0,1-3424.077,3271.312Z" transform="translate(-193.924 -25.731)" fill="#fff"/>
      <path id="Контур_269" data-name="Контур 269" d="M-3533.82,3245.777c.011,1-.149,1.463-1.325,1.435-2.876-.064-2.878,0-2.878-2.881,0-7.951.022-15.9-.028-23.853-.005-1.106.32-1.38,1.388-1.36,2.823.055,2.823.005,2.823,2.807v11.306C-3533.839,3237.412-3533.864,3241.593-3533.82,3245.777Z" transform="translate(-119.429 -1.424)" fill="#fff"/>
      <path id="Контур_270" data-name="Контур 270" d="M-3130.58,3256.641c-.312.527-1.176.116-1.8.213a5.558,5.558,0,0,0-4.669,5.494c-.044,2.614-.047,5.23.008,7.843.019.927-.2,1.264-1.2,1.258-3-.016-3.005.028-3-3.033,0-4.678.02-9.358-.019-14.036-.006-.869.207-1.289,1.14-1.167a5.173,5.173,0,0,0,1.237,0c1.25-.149,2.23-.025,1.728,2.031a8.1,8.1,0,0,1,5.622-2.644c.762-.028,1.242.165,1.107,1.065a7.959,7.959,0,0,0-.008.96C-3130.459,3255.313-3130.271,3256.125-3130.58,3256.641Z" transform="translate(-406.715 -25.668)" fill="#fff"/>
    </g>
  </g>
</svg>
