<svg id="Layer_1" data-name="Layer 1" xmlns="http://www.w3.org/2000/svg" viewBox="0 0 185.3 33.37"><defs><style>.cls-1{fill:#fff;}</style></defs><path class="cls-1" d="M54.57,8.28,47.44,24.12h3L52,20.46H60l1.58,3.66h3.08L57.47,8.28ZM53,18.15l3-6.93,3,6.93Z" transform="translate(-4.8 -0.81)"/><rect class="cls-1" x="65.91" y="7.46" width="2.94" height="15.85"/><polygon class="cls-1" points="75.16 9.95 80.42 9.95 80.42 23.31 83.36 23.31 83.36 9.95 88.61 9.95 88.61 7.46 75.16 7.46 75.16 9.95"/><path class="cls-1" d="M110.26,17.1q0,4.66-4,4.67c-2.68,0-4-1.56-4-4.67V8.28H99.28v8.94a7.18,7.18,0,0,0,1.83,5.28,6.91,6.91,0,0,0,5.12,1.85,6.83,6.83,0,0,0,5.1-1.85,7.18,7.18,0,0,0,1.83-5.28V8.28h-2.9Z" transform="translate(-4.8 -0.81)"/><polygon class="cls-1" points="138.01 14.01 129.81 14.01 129.81 7.46 126.87 7.46 126.87 23.31 129.81 23.31 129.81 16.52 138.01 16.52 138.01 23.31 140.95 23.31 140.95 7.46 138.01 7.46 138.01 14.01"/><path class="cls-1" d="M164.93,17.1q0,4.66-4,4.67c-2.68,0-4-1.56-4-4.67V8.28H154v8.94a7.18,7.18,0,0,0,1.83,5.28,8,8,0,0,0,10.22,0,7.18,7.18,0,0,0,1.83-5.28V8.28h-2.9Z" transform="translate(-4.8 -0.81)"/><path class="cls-1" d="M189.33,17.32a4.22,4.22,0,0,0-2.08-1.44,3.72,3.72,0,0,0,1.49-1.4,3.89,3.89,0,0,0,.55-2.08,3.55,3.55,0,0,0-1.52-3,7.29,7.29,0,0,0-4.32-1.09H176V24.12h7.88A8,8,0,0,0,188.52,23a3.68,3.68,0,0,0,1.58-3.18A4,4,0,0,0,189.33,17.32ZM179,10.58h4.17a4.26,4.26,0,0,1,2.37.56,1.85,1.85,0,0,1,.82,1.64,1.83,1.83,0,0,1-.82,1.62,4.26,4.26,0,0,1-2.37.55H179Zm4.76,11.23H179V17.24h4.76c2.28,0,3.42.76,3.42,2.29S186,21.81,183.72,21.81Z" transform="translate(-4.8 -0.81)"/><path class="cls-1" d="M33.77,26.2l-.11.15a15,15,0,0,1-24.33,0,15,15,0,0,1,24-18.11l.11.14,1.29-1-.11-.14a16.68,16.68,0,0,0-26.3,0A16.71,16.71,0,0,0,8,27.32a16.68,16.68,0,0,0,27,0l.11-.15Z" transform="translate(-4.8 -0.81)"/><path class="cls-1" d="M15,25.86a4.15,4.15,0,0,0,5.65,1.51A4.06,4.06,0,0,0,22.5,25,7.43,7.43,0,0,0,25.15,24a7.56,7.56,0,0,0,2.11-1.79,3.8,3.8,0,0,0,.95.11,4.13,4.13,0,0,0,0-8.25L28,13.58a7.65,7.65,0,0,0-6.29-3.81,3.6,3.6,0,0,0-.2-.39,4.12,4.12,0,0,0-7.14,4.13,3.17,3.17,0,0,0,.23.36,7.67,7.67,0,0,0,.16,7.35c.09.16.19.31.28.46A4.16,4.16,0,0,0,15,25.86ZM21.2,24.5h0a2.79,2.79,0,0,1-1.28,1.67,2.75,2.75,0,1,1-2.75-4.77,2.7,2.7,0,0,1,1.37-.36A2.75,2.75,0,0,1,21.2,24.5Zm7-9a2.75,2.75,0,0,1,1.38,5.13h0a2.75,2.75,0,1,1-2.75-4.76A2.63,2.63,0,0,1,28.2,15.47ZM16.52,9.07h0a2.63,2.63,0,0,1,1.37-.37,2.75,2.75,0,1,1-1.37.37Zm-.92,5.81a4.26,4.26,0,0,0,2.3.7A4,4,0,0,0,20,15a4.08,4.08,0,0,0,1.93-2.5A4.33,4.33,0,0,0,22,11.18a6.22,6.22,0,0,1,4.74,3.09l0,.07a4.39,4.39,0,0,0-.66.31,4.12,4.12,0,0,0-.21,7,5.92,5.92,0,0,1-1.46,1.17h0a6.47,6.47,0,0,1-1.8.7,4.19,4.19,0,0,0-.54-1.8,4.14,4.14,0,0,0-5.64-1.51,4,4,0,0,0-.54.38l0-.06A6.28,6.28,0,0,1,15.6,14.88Z" transform="translate(-4.8 -0.81)"/></svg>