<svg xmlns="http://www.w3.org/2000/svg" width="33.212" height="24.381" viewBox="0 0 33.212 24.381">
  <g id="Сгруппировать_45" data-name="Сгруппировать 45" transform="translate(-12530.999 72.191)">
    <g id="Сгруппировать_43" data-name="Сгруппировать 43" transform="translate(14473.061 -1336.229)">
      <path id="Контур_3" data-name="Контур 3" d="M-1910.469,1267.664h-24.293c-.149-.856-.277-1.663-.431-2.464a1.3,1.3,0,0,0-1.277-1.139c-1.441-.028-2.883-.033-4.323,0a1.313,1.313,0,0,0-1.268,1.405,1.286,1.286,0,0,0,1.3,1.306c.7.021,1.408.005,2.112.006h.89l1.292,7.326q.68,3.852,1.359,7.706c.322,1.827.635,3.656.978,5.478a1.266,1.266,0,0,0,1.348,1.1l.539,0,1.01,0-.009.008,1.319.008,1.221.02,1.431,0,9.7-.03h2.315c.336,0,.62,0,.9,0a1.326,1.326,0,0,0,1.483-1.336,1.331,1.331,0,0,0-1.442-1.386l-16.8,0h-.541l-.417-2.331h19.383a1.459,1.459,0,0,0,1.62-1.362c.024-.148.064-.294.089-.442q1.04-5.978,2.081-11.956C-1908.68,1268.341-1909.222,1267.664-1910.469,1267.664Zm-3.153,12.878h-.571q-8.847,0-17.693.01c-.479,0-.677-.09-.763-.62-.516-3.132-1.083-6.256-1.633-9.383a.52.52,0,0,1,.025-.131h22.412C-1912.436,1273.785-1913.026,1277.144-1913.622,1280.542Z" transform="translate(0)" fill="#fff"/>
    </g>
  </g>
</svg>
